<?xml version="1.0" encoding="UTF-8" standalone="no"?>
<!DOCTYPE svg PUBLIC "-//W3C//DTD SVG 1.1//EN"
 "http://www.w3.org/Graphics/SVG/1.1/DTD/svg11.dtd">
<!-- Generated by graphviz version 14.1.0 (0)
 -->
<!-- Title: TotalFlow Pages: 1 -->
<svg width="503pt" height="1500pt"
 viewBox="0.00 0.00 503.00 1500.00" xmlns="http://www.w3.org/2000/svg" xmlns:xlink="http://www.w3.org/1999/xlink">
<g id="graph0" class="graph" transform="scale(1 1) rotate(0) translate(4 1496)">
<title>TotalFlow</title>
<polygon fill="white" stroke="none" points="-4,4 -4,-1496 498.5,-1496 498.5,4 -4,4"/>
<!-- A -->
<g id="node1" class="node">
<title>A</title>
<path fill="none" stroke="black" d="M352.62,-1492C352.62,-1492 310.38,-1492 310.38,-1492 304.38,-1492 298.38,-1486 298.38,-1480 298.38,-1480 298.38,-1468 298.38,-1468 298.38,-1462 304.38,-1456 310.38,-1456 310.38,-1456 352.62,-1456 352.62,-1456 358.62,-1456 364.62,-1462 364.62,-1468 364.62,-1468 364.62,-1480 364.62,-1480 364.62,-1486 358.62,-1492 352.62,-1492"/>
<text xml:space="preserve" text-anchor="middle" x="331.5" y="-1468.2" font-family="Helvetica,sans-Serif" font-size="14.00">Request</text>
</g>
<!-- B -->
<g id="node2" class="node">
<title>B</title>
<path fill="none" stroke="black" d="M369.5,-1419C369.5,-1419 293.5,-1419 293.5,-1419 287.5,-1419 281.5,-1413 281.5,-1407 281.5,-1407 281.5,-1395 281.5,-1395 281.5,-1389 287.5,-1383 293.5,-1383 293.5,-1383 369.5,-1383 369.5,-1383 375.5,-1383 381.5,-1389 381.5,-1395 381.5,-1395 381.5,-1407 381.5,-1407 381.5,-1413 375.5,-1419 369.5,-1419"/>
<text xml:space="preserve" text-anchor="middle" x="331.5" y="-1397.83" font-family="Helvetica,sans-Serif" font-size="14.00">解析 Request</text>
</g>
<!-- A&#45;&gt;B -->
<g id="edge1" class="edge">
<title>A&#45;&gt;B</title>
<path fill="none" stroke="black" d="M331.5,-1455.81C331.5,-1448.23 331.5,-1439.1 331.5,-1430.54"/>
<polygon fill="black" stroke="black" points="335,-1430.54 331.5,-1420.54 328,-1430.54 335,-1430.54"/>
</g>
<!-- C -->
<g id="node3" class="node">
<title>C</title>
<path fill="none" stroke="black" d="M405.5,-1346C405.5,-1346 257.5,-1346 257.5,-1346 251.5,-1346 245.5,-1340 245.5,-1334 245.5,-1334 245.5,-1148.5 245.5,-1148.5 245.5,-1142.5 251.5,-1136.5 257.5,-1136.5 257.5,-1136.5 405.5,-1136.5 405.5,-1136.5 411.5,-1136.5 417.5,-1142.5 417.5,-1148.5 417.5,-1148.5 417.5,-1334 417.5,-1334 417.5,-1340 411.5,-1346 405.5,-1346"/>
<text xml:space="preserve" text-anchor="middle" x="331.5" y="-1328.7" font-family="Helvetica,sans-Serif" font-size="14.00">【图2】输入处理:</text>
<text xml:space="preserve" text-anchor="middle" x="331.5" y="-1292.45" font-family="Helvetica,sans-Serif" font-size="14.00">1. item 关联 orderDetail</text>
<text xml:space="preserve" text-anchor="middle" x="331.5" y="-1256.2" font-family="Helvetica,sans-Serif" font-size="14.00">2. orderDetail 合法性校验</text>
<text xml:space="preserve" text-anchor="middle" x="331.5" y="-1219.95" font-family="Helvetica,sans-Serif" font-size="14.00">3. quantity 对 csQty 取余</text>
<text xml:space="preserve" text-anchor="middle" x="331.5" y="-1183.7" font-family="Helvetica,sans-Serif" font-size="14.00">4. 聚合调度集合</text>
<text xml:space="preserve" text-anchor="middle" x="331.5" y="-1147.45" font-family="Helvetica,sans-Serif" font-size="14.00">5. 离散化尺寸</text>
</g>
<!-- B&#45;&gt;C -->
<g id="edge2" class="edge">
<title>B&#45;&gt;C</title>
<path fill="none" stroke="black" d="M331.5,-1382.52C331.5,-1375.65 331.5,-1367.17 331.5,-1357.8"/>
<polygon fill="black" stroke="black" points="335,-1357.95 331.5,-1347.95 328,-1357.95 335,-1357.95"/>
</g>
<!-- P -->
<g id="node4" class="node">
<title>P</title>
<path fill="none" stroke="black" d="M413.38,-1099.5C413.38,-1099.5 249.62,-1099.5 249.62,-1099.5 243.62,-1099.5 237.62,-1093.5 237.62,-1087.5 237.62,-1087.5 237.62,-1042.75 237.62,-1042.75 237.62,-1036.75 243.62,-1030.75 249.62,-1030.75 249.62,-1030.75 413.38,-1030.75 413.38,-1030.75 419.38,-1030.75 425.38,-1036.75 425.38,-1042.75 425.38,-1042.75 425.38,-1087.5 425.38,-1087.5 425.38,-1093.5 419.38,-1099.5 413.38,-1099.5"/>
<text xml:space="preserve" text-anchor="middle" x="331.5" y="-1082.2" font-family="Helvetica,sans-Serif" font-size="14.00">按 groupId 分组:</text>
<text xml:space="preserve" text-anchor="middle" x="331.5" y="-1061.95" font-family="Helvetica,sans-Serif" font-size="14.00">一个请求可包含多个 group</text>
<text xml:space="preserve" text-anchor="middle" x="331.5" y="-1041.7" font-family="Helvetica,sans-Serif" font-size="14.00">每个 group 独立运行主流程</text>
</g>
<!-- C&#45;&gt;P -->
<g id="edge3" class="edge">
<title>C&#45;&gt;P</title>
<path fill="none" stroke="black" d="M331.5,-1136.2C331.5,-1127.51 331.5,-1119.07 331.5,-1111.22"/>
<polygon fill="black" stroke="black" points="335,-1111.33 331.5,-1101.33 328,-1111.33 335,-1111.33"/>
</g>
<!-- Q -->
<g id="node5" class="node">
<title>Q</title>
<path fill="none" stroke="black" d="M383,-993.75C383,-993.75 280,-993.75 280,-993.75 274,-993.75 268,-987.75 268,-981.75 268,-981.75 268,-969.75 268,-969.75 268,-963.75 274,-957.75 280,-957.75 280,-957.75 383,-957.75 383,-957.75 389,-957.75 395,-963.75 395,-969.75 395,-969.75 395,-981.75 395,-981.75 395,-987.75 389,-993.75 383,-993.75"/>
<text xml:space="preserve" text-anchor="middle" x="331.5" y="-972.58" font-family="Helvetica,sans-Serif" font-size="14.00">选择下一个 group</text>
</g>
<!-- P&#45;&gt;Q -->
<g id="edge4" class="edge">
<title>P&#45;&gt;Q</title>
<path fill="none" stroke="black" d="M331.5,-1030.34C331.5,-1022.05 331.5,-1013.26 331.5,-1005.24"/>
<polygon fill="black" stroke="black" points="335,-1005.36 331.5,-995.36 328,-1005.36 335,-1005.36"/>
</g>
<!-- D -->
<g id="node6" class="node">
<title>D</title>
<path fill="none" stroke="black" d="M225.73,-918.43C225.73,-918.43 158.05,-905.07 158.05,-905.07 152.16,-903.91 152.16,-901.59 158.05,-900.43 158.05,-900.43 225.73,-887.07 225.73,-887.07 231.61,-885.91 243.39,-885.91 249.27,-887.07 249.27,-887.07 316.95,-900.43 316.95,-900.43 322.84,-901.59 322.84,-903.91 316.95,-905.07 316.95,-905.07 249.27,-918.43 249.27,-918.43 243.39,-919.59 231.61,-919.59 225.73,-918.43"/>
<text xml:space="preserve" text-anchor="middle" x="237.5" y="-896.95" font-family="Helvetica,sans-Serif" font-size="14.00">carrierService</text>
</g>
<!-- Q&#45;&gt;D -->
<g id="edge5" class="edge">
<title>Q&#45;&gt;D</title>
<path fill="none" stroke="black" d="M308.75,-957.56C295.5,-947.56 278.72,-934.88 264.77,-924.35"/>
<polygon fill="black" stroke="black" points="266.94,-921.6 256.85,-918.37 262.72,-927.19 266.94,-921.6"/>
</g>
<!-- E -->
<g id="node7" class="node">
<title>E</title>
<path fill="none" stroke="black" d="M121,-726.75C121,-726.75 12,-726.75 12,-726.75 6,-726.75 0,-720.75 0,-714.75 0,-714.75 0,-670 0,-670 0,-664 6,-658 12,-658 12,-658 121,-658 121,-658 127,-658 133,-664 133,-670 133,-670 133,-714.75 133,-714.75 133,-720.75 127,-726.75 121,-726.75"/>
<text xml:space="preserve" text-anchor="middle" x="66.5" y="-709.45" font-family="Helvetica,sans-Serif" font-size="14.00">【图5】物流处理:</text>
<text xml:space="preserve" text-anchor="middle" x="66.5" y="-689.2" font-family="Helvetica,sans-Serif" font-size="14.00">按 stores 过滤箱型</text>
<text xml:space="preserve" text-anchor="middle" x="66.5" y="-668.95" font-family="Helvetica,sans-Serif" font-size="14.00">取最小体积箱型</text>
</g>
<!-- D&#45;&gt;E -->
<g id="edge6" class="edge">
<title>D&#45;&gt;E</title>
<path fill="none" stroke="black" d="M211.97,-889.39C189.75,-877.6 157.84,-858.06 136.5,-833.75 111.78,-805.59 93.41,-767.14 81.71,-737.61"/>
<polygon fill="black" stroke="black" points="85.09,-736.66 78.24,-728.58 78.56,-739.17 85.09,-736.66"/>
<text xml:space="preserve" text-anchor="middle" x="177.81" y="-853.45" font-family="Helvetica,sans-Serif" font-size="14.00">1</text>
</g>
<!-- F -->
<g id="node8" class="node">
<title>F</title>
<path fill="none" stroke="black" d="M317.12,-833.75C317.12,-833.75 157.88,-833.75 157.88,-833.75 151.88,-833.75 145.88,-827.75 145.88,-821.75 145.88,-821.75 145.88,-756.75 145.88,-756.75 145.88,-750.75 151.88,-744.75 157.88,-744.75 157.88,-744.75 317.12,-744.75 317.12,-744.75 323.12,-744.75 329.12,-750.75 329.12,-756.75 329.12,-756.75 329.12,-821.75 329.12,-821.75 329.12,-827.75 323.12,-833.75 317.12,-833.75"/>
<text xml:space="preserve" text-anchor="middle" x="237.5" y="-816.45" font-family="Helvetica,sans-Serif" font-size="14.00">快递处理:</text>
<text xml:space="preserve" text-anchor="middle" x="237.5" y="-796.2" font-family="Helvetica,sans-Serif" font-size="14.00">礼盒/散件分离</text>
<text xml:space="preserve" text-anchor="middle" x="237.5" y="-775.95" font-family="Helvetica,sans-Serif" font-size="14.00">按 stores 生成候选箱集合</text>
<text xml:space="preserve" text-anchor="middle" x="237.5" y="-755.7" font-family="Helvetica,sans-Serif" font-size="14.00">根据 sequence 和体积排序</text>
</g>
<!-- D&#45;&gt;F -->
<g id="edge7" class="edge">
<title>D&#45;&gt;F</title>
<path fill="none" stroke="black" d="M237.5,-884.33C237.5,-873.7 237.5,-859.46 237.5,-845.28"/>
<polygon fill="black" stroke="black" points="241,-845.51 237.5,-835.51 234,-845.51 241,-845.51"/>
<text xml:space="preserve" text-anchor="middle" x="241.25" y="-853.45" font-family="Helvetica,sans-Serif" font-size="14.00">0</text>
</g>
<!-- I -->
<g id="node11" class="node">
<title>I</title>
<path fill="none" stroke="black" d="M326.5,-367.75C326.5,-367.75 148.5,-367.75 148.5,-367.75 142.5,-367.75 136.5,-361.75 136.5,-355.75 136.5,-355.75 136.5,-343.75 136.5,-343.75 136.5,-337.75 142.5,-331.75 148.5,-331.75 148.5,-331.75 326.5,-331.75 326.5,-331.75 332.5,-331.75 338.5,-337.75 338.5,-343.75 338.5,-343.75 338.5,-355.75 338.5,-355.75 338.5,-361.75 332.5,-367.75 326.5,-367.75"/>
<text xml:space="preserve" text-anchor="middle" x="237.5" y="-346.57" font-family="Helvetica,sans-Serif" font-size="14.00">得到当前 group 合法装箱结果</text>
</g>
<!-- E&#45;&gt;I -->
<g id="edge10" class="edge">
<title>E&#45;&gt;I</title>
<path fill="none" stroke="black" d="M55.25,-657.86C38.1,-600 12.92,-480.31 68.5,-404.75 82.52,-385.69 103.35,-373.2 125.64,-365.06"/>
<polygon fill="black" stroke="black" points="126.49,-368.47 134.88,-361.99 124.28,-361.83 126.49,-368.47"/>
</g>
<!-- G -->
<g id="node9" class="node">
<title>G</title>
<path fill="none" stroke="black" d="M340.75,-640C340.75,-640 134.25,-640 134.25,-640 128.25,-640 122.25,-634 122.25,-628 122.25,-628 122.25,-522.5 122.25,-522.5 122.25,-516.5 128.25,-510.5 134.25,-510.5 134.25,-510.5 340.75,-510.5 340.75,-510.5 346.75,-510.5 352.75,-516.5 352.75,-522.5 352.75,-522.5 352.75,-628 352.75,-628 352.75,-634 346.75,-640 340.75,-640"/>
<text xml:space="preserve" text-anchor="middle" x="237.5" y="-622.7" font-family="Helvetica,sans-Serif" font-size="14.00">【图4】lclRules 主编排:</text>
<text xml:space="preserve" text-anchor="middle" x="237.5" y="-602.45" font-family="Helvetica,sans-Serif" font-size="14.00">1. 选择当前最高优先级未处理规则</text>
<text xml:space="preserve" text-anchor="middle" x="237.5" y="-582.2" font-family="Helvetica,sans-Serif" font-size="14.00">2. 提取商品子集并计算标志位</text>
<text xml:space="preserve" text-anchor="middle" x="237.5" y="-561.95" font-family="Helvetica,sans-Serif" font-size="14.00">3. 调用单轮箱型求解子流程</text>
<text xml:space="preserve" text-anchor="middle" x="237.5" y="-541.7" font-family="Helvetica,sans-Serif" font-size="14.00">4. 命中/降级/兜底/删除已装商品</text>
<text xml:space="preserve" text-anchor="middle" x="237.5" y="-521.45" font-family="Helvetica,sans-Serif" font-size="14.00">5. 循环到剩余商品为空</text>
</g>
<!-- F&#45;&gt;G -->
<g id="edge8" class="edge">
<title>F&#45;&gt;G</title>
<path fill="none" stroke="black" d="M237.5,-744.32C237.5,-717.54 237.5,-682.58 237.5,-651.49"/>
<polygon fill="black" stroke="black" points="241,-651.75 237.5,-641.75 234,-651.75 241,-651.75"/>
</g>
<!-- H -->
<g id="node10" class="node">
<title>H</title>
<path fill="none" stroke="black" d="M385.38,-473.5C385.38,-473.5 89.62,-473.5 89.62,-473.5 83.62,-473.5 77.62,-467.5 77.62,-461.5 77.62,-461.5 77.62,-416.75 77.62,-416.75 77.62,-410.75 83.62,-404.75 89.62,-404.75 89.62,-404.75 385.38,-404.75 385.38,-404.75 391.38,-404.75 397.38,-410.75 397.38,-416.75 397.38,-416.75 397.38,-461.5 397.38,-461.5 397.38,-467.5 391.38,-473.5 385.38,-473.5"/>
<text xml:space="preserve" text-anchor="middle" x="237.5" y="-456.2" font-family="Helvetica,sans-Serif" font-size="14.00">单轮箱型求解子流程:</text>
<text xml:space="preserve" text-anchor="middle" x="237.5" y="-435.95" font-family="Helvetica,sans-Serif" font-size="14.00">flag=0 =&gt; 找规则边界箱</text>
<text xml:space="preserve" text-anchor="middle" x="237.5" y="-415.7" font-family="Helvetica,sans-Serif" font-size="14.00">flag=1 =&gt; 对全部剩余商品循环执行传统多箱装箱</text>
</g>
<!-- G&#45;&gt;H -->
<g id="edge9" class="edge">
<title>G&#45;&gt;H</title>
<path fill="none" stroke="black" d="M237.5,-510.33C237.5,-501.81 237.5,-493.22 237.5,-485.11"/>
<polygon fill="black" stroke="black" points="241,-485.16 237.5,-475.16 234,-485.16 241,-485.16"/>
</g>
<!-- H&#45;&gt;I -->
<g id="edge11" class="edge">
<title>H&#45;&gt;I</title>
<path fill="none" stroke="black" d="M237.5,-404.34C237.5,-396.05 237.5,-387.26 237.5,-379.24"/>
<polygon fill="black" stroke="black" points="241,-379.36 237.5,-369.36 234,-379.36 241,-379.36"/>
</g>
<!-- R -->
<g id="node12" class="node">
<title>R</title>
<path fill="none" stroke="black" d="M319.68,-292.7C319.68,-292.7 180.32,-268.55 180.32,-268.55 174.41,-267.52 174.41,-265.48 180.32,-264.45 180.32,-264.45 319.68,-240.3 319.68,-240.3 325.59,-239.27 337.41,-239.27 343.32,-240.3 343.32,-240.3 482.68,-264.45 482.68,-264.45 488.59,-265.48 488.59,-267.52 482.68,-268.55 482.68,-268.55 343.32,-292.7 343.32,-292.7 337.41,-293.73 325.59,-293.73 319.68,-292.7"/>
<text xml:space="preserve" text-anchor="middle" x="331.5" y="-263.32" font-family="Helvetica,sans-Serif" font-size="14.00">是否还有未处理 group?</text>
</g>
<!-- I&#45;&gt;R -->
<g id="edge12" class="edge">
<title>I&#45;&gt;R</title>
<path fill="none" stroke="black" d="M257.43,-331.52C268.75,-321.74 283.25,-309.21 296.41,-297.83"/>
<polygon fill="black" stroke="black" points="298.39,-300.74 303.67,-291.56 293.82,-295.45 298.39,-300.74"/>
</g>
<!-- R&#45;&gt;Q -->
<g id="edge13" class="edge">
<title>R&#45;&gt;Q</title>
<path fill="none" stroke="black" d="M377.95,-287.1C401.63,-300.51 425.5,-320.92 425.5,-348.75 425.5,-903.75 425.5,-903.75 425.5,-903.75 425.5,-924.9 410.16,-940.55 391.87,-951.69"/>
<polygon fill="black" stroke="black" points="390.18,-948.63 383.13,-956.53 393.57,-954.75 390.18,-948.63"/>
<text xml:space="preserve" text-anchor="middle" x="432.62" y="-572.08" font-family="Helvetica,sans-Serif" font-size="14.00">是</text>
</g>
<!-- J -->
<g id="node13" class="node">
<title>J</title>
<path fill="none" stroke="black" d="M427.62,-182C427.62,-182 235.38,-182 235.38,-182 229.38,-182 223.38,-176 223.38,-170 223.38,-170 223.38,-158 223.38,-158 223.38,-152 229.38,-146 235.38,-146 235.38,-146 427.62,-146 427.62,-146 433.62,-146 439.62,-152 439.62,-158 439.62,-158 439.62,-170 439.62,-170 439.62,-176 433.62,-182 427.62,-182"/>
<text xml:space="preserve" text-anchor="middle" x="331.5" y="-160.82" font-family="Helvetica,sans-Serif" font-size="14.00">合并所有 group 的合法装箱结果</text>
</g>
<!-- R&#45;&gt;J -->
<g id="edge14" class="edge">
<title>R&#45;&gt;J</title>
<path fill="none" stroke="black" d="M331.5,-237.77C331.5,-224.02 331.5,-207.43 331.5,-193.57"/>
<polygon fill="black" stroke="black" points="335,-193.74 331.5,-183.74 328,-193.74 335,-193.74"/>
<text xml:space="preserve" text-anchor="middle" x="338.62" y="-206.95" font-family="Helvetica,sans-Serif" font-size="14.00">否</text>
</g>
<!-- K -->
<g id="node14" class="node">
<title>K</title>
<path fill="none" stroke="black" d="M423.12,-109C423.12,-109 239.88,-109 239.88,-109 233.88,-109 227.88,-103 227.88,-97 227.88,-97 227.88,-85 227.88,-85 227.88,-79 233.88,-73 239.88,-73 239.88,-73 423.12,-73 423.12,-73 429.12,-73 435.12,-79 435.12,-85 435.12,-85 435.12,-97 435.12,-97 435.12,-103 429.12,-109 423.12,-109"/>
<text xml:space="preserve" text-anchor="middle" x="331.5" y="-87.83" font-family="Helvetica,sans-Serif" font-size="14.00">【图6】装箱结果 Response 化</text>
</g>
<!-- J&#45;&gt;K -->
<g id="edge15" class="edge">
<title>J&#45;&gt;K</title>
<path fill="none" stroke="black" d="M331.5,-145.81C331.5,-138.23 331.5,-129.1 331.5,-120.54"/>
<polygon fill="black" stroke="black" points="335,-120.54 331.5,-110.54 328,-120.54 335,-120.54"/>
</g>
<!-- O -->
<g id="node15" class="node">
<title>O</title>
<path fill="none" stroke="black" d="M357.88,-36C357.88,-36 305.12,-36 305.12,-36 299.12,-36 293.12,-30 293.12,-24 293.12,-24 293.12,-12 293.12,-12 293.12,-6 299.12,0 305.12,0 305.12,0 357.88,0 357.88,0 363.88,0 369.88,-6 369.88,-12 369.88,-12 369.88,-24 369.88,-24 369.88,-30 363.88,-36 357.88,-36"/>
<text xml:space="preserve" text-anchor="middle" x="331.5" y="-12.2" font-family="Helvetica,sans-Serif" font-size="14.00">Response</text>
</g>
<!-- K&#45;&gt;O -->
<g id="edge16" class="edge">
<title>K&#45;&gt;O</title>
<path fill="none" stroke="black" d="M331.5,-72.81C331.5,-65.23 331.5,-56.1 331.5,-47.54"/>
<polygon fill="black" stroke="black" points="335,-47.54 331.5,-37.54 328,-47.54 335,-47.54"/>
</g>
</g>
</svg>
