<?xml version="1.0" encoding="UTF-8" standalone="no"?>
<!DOCTYPE svg PUBLIC "-//W3C//DTD SVG 1.1//EN"
 "http://www.w3.org/Graphics/SVG/1.1/DTD/svg11.dtd">
<!-- Generated by graphviz version 14.1.0 (0)
 -->
<!-- Title: InputNormalization Pages: 1 -->
<svg width="513pt" height="1574pt"
 viewBox="0.00 0.00 513.00 1574.00" xmlns="http://www.w3.org/2000/svg" xmlns:xlink="http://www.w3.org/1999/xlink">
<g id="graph0" class="graph" transform="scale(1 1) rotate(0) translate(4 1570.23)">
<title>InputNormalization</title>
<polygon fill="white" stroke="none" points="-4,4 -4,-1570.23 508.93,-1570.23 508.93,4 -4,4"/>
<!-- A -->
<g id="node1" class="node">
<title>A</title>
<path fill="none" stroke="black" d="M374.68,-1566.23C374.68,-1566.23 298.68,-1566.23 298.68,-1566.23 292.68,-1566.23 286.68,-1560.23 286.68,-1554.23 286.68,-1554.23 286.68,-1542.23 286.68,-1542.23 286.68,-1536.23 292.68,-1530.23 298.68,-1530.23 298.68,-1530.23 374.68,-1530.23 374.68,-1530.23 380.68,-1530.23 386.68,-1536.23 386.68,-1542.23 386.68,-1542.23 386.68,-1554.23 386.68,-1554.23 386.68,-1560.23 380.68,-1566.23 374.68,-1566.23"/>
<text xml:space="preserve" text-anchor="middle" x="336.68" y="-1545.06" font-family="Helvetica,sans-Serif" font-size="14.00">读取 Request</text>
</g>
<!-- B -->
<g id="node2" class="node">
<title>B</title>
<path fill="none" stroke="black" d="M437.68,-1493.23C437.68,-1493.23 235.68,-1493.23 235.68,-1493.23 229.68,-1493.23 223.68,-1487.23 223.68,-1481.23 223.68,-1481.23 223.68,-1456.73 223.68,-1456.73 223.68,-1450.73 229.68,-1444.73 235.68,-1444.73 235.68,-1444.73 437.68,-1444.73 437.68,-1444.73 443.68,-1444.73 449.68,-1450.73 449.68,-1456.73 449.68,-1456.73 449.68,-1481.23 449.68,-1481.23 449.68,-1487.23 443.68,-1493.23 437.68,-1493.23"/>
<text xml:space="preserve" text-anchor="middle" x="336.68" y="-1475.93" font-family="Helvetica,sans-Serif" font-size="14.00">顶层空校验:</text>
<text xml:space="preserve" text-anchor="middle" x="336.68" y="-1455.68" font-family="Helvetica,sans-Serif" font-size="14.00">items / containers / order 是否为空</text>
</g>
<!-- A&#45;&gt;B -->
<g id="edge1" class="edge">
<title>A&#45;&gt;B</title>
<path fill="none" stroke="black" d="M336.68,-1530.09C336.68,-1522.61 336.68,-1513.55 336.68,-1504.77"/>
<polygon fill="black" stroke="black" points="340.18,-1505.04 336.68,-1495.04 333.18,-1505.04 340.18,-1505.04"/>
</g>
<!-- C -->
<g id="node3" class="node">
<title>C</title>
<path fill="none" stroke="black" d="M421.93,-1407.73C421.93,-1407.73 251.43,-1407.73 251.43,-1407.73 245.43,-1407.73 239.43,-1401.73 239.43,-1395.73 239.43,-1395.73 239.43,-1383.73 239.43,-1383.73 239.43,-1377.73 245.43,-1371.73 251.43,-1371.73 251.43,-1371.73 421.93,-1371.73 421.93,-1371.73 427.93,-1371.73 433.93,-1377.73 433.93,-1383.73 433.93,-1383.73 433.93,-1395.73 433.93,-1395.73 433.93,-1401.73 427.93,-1407.73 421.93,-1407.73"/>
<text xml:space="preserve" text-anchor="middle" x="336.68" y="-1386.56" font-family="Helvetica,sans-Serif" font-size="14.00">建立 items.code &#45;&gt; item 映射</text>
</g>
<!-- B&#45;&gt;C -->
<g id="edge2" class="edge">
<title>B&#45;&gt;C</title>
<path fill="none" stroke="black" d="M336.68,-1444.38C336.68,-1436.51 336.68,-1427.66 336.68,-1419.44"/>
<polygon fill="black" stroke="black" points="340.18,-1419.57 336.68,-1409.57 333.18,-1419.57 340.18,-1419.57"/>
</g>
<!-- D -->
<g id="node4" class="node">
<title>D</title>
<path fill="none" stroke="black" d="M451.18,-1334.73C451.18,-1334.73 222.18,-1334.73 222.18,-1334.73 216.18,-1334.73 210.18,-1328.73 210.18,-1322.73 210.18,-1322.73 210.18,-1310.73 210.18,-1310.73 210.18,-1304.73 216.18,-1298.73 222.18,-1298.73 222.18,-1298.73 451.18,-1298.73 451.18,-1298.73 457.18,-1298.73 463.18,-1304.73 463.18,-1310.73 463.18,-1310.73 463.18,-1322.73 463.18,-1322.73 463.18,-1328.73 457.18,-1334.73 451.18,-1334.73"/>
<text xml:space="preserve" text-anchor="middle" x="336.68" y="-1313.56" font-family="Helvetica,sans-Serif" font-size="14.00">建立 containers.code &#45;&gt; container 映射</text>
</g>
<!-- C&#45;&gt;D -->
<g id="edge3" class="edge">
<title>C&#45;&gt;D</title>
<path fill="none" stroke="black" d="M336.68,-1371.54C336.68,-1363.96 336.68,-1354.83 336.68,-1346.27"/>
<polygon fill="black" stroke="black" points="340.18,-1346.27 336.68,-1336.27 333.18,-1346.27 340.18,-1346.27"/>
</g>
<!-- E -->
<g id="node5" class="node">
<title>E</title>
<path fill="none" stroke="black" d="M382.56,-1261.73C382.56,-1261.73 290.81,-1261.73 290.81,-1261.73 284.81,-1261.73 278.81,-1255.73 278.81,-1249.73 278.81,-1249.73 278.81,-1237.73 278.81,-1237.73 278.81,-1231.73 284.81,-1225.73 290.81,-1225.73 290.81,-1225.73 382.56,-1225.73 382.56,-1225.73 388.56,-1225.73 394.56,-1231.73 394.56,-1237.73 394.56,-1237.73 394.56,-1249.73 394.56,-1249.73 394.56,-1255.73 388.56,-1261.73 382.56,-1261.73"/>
<text xml:space="preserve" text-anchor="middle" x="336.68" y="-1240.56" font-family="Helvetica,sans-Serif" font-size="14.00">遍历 orderDetail</text>
</g>
<!-- D&#45;&gt;E -->
<g id="edge4" class="edge">
<title>D&#45;&gt;E</title>
<path fill="none" stroke="black" d="M336.68,-1298.54C336.68,-1290.96 336.68,-1281.83 336.68,-1273.27"/>
<polygon fill="black" stroke="black" points="340.18,-1273.27 336.68,-1263.27 333.18,-1273.27 340.18,-1273.27"/>
</g>
<!-- F -->
<g id="node6" class="node">
<title>F</title>
<path fill="none" stroke="black" d="M358.56,-1188.73C358.56,-1188.73 188.81,-1188.73 188.81,-1188.73 182.81,-1188.73 176.81,-1182.73 176.81,-1176.73 176.81,-1176.73 176.81,-1164.73 176.81,-1164.73 176.81,-1158.73 182.81,-1152.73 188.81,-1152.73 188.81,-1152.73 358.56,-1152.73 358.56,-1152.73 364.56,-1152.73 370.56,-1158.73 370.56,-1164.73 370.56,-1164.73 370.56,-1176.73 370.56,-1176.73 370.56,-1182.73 364.56,-1188.73 358.56,-1188.73"/>
<text xml:space="preserve" text-anchor="middle" x="273.68" y="-1167.56" font-family="Helvetica,sans-Serif" font-size="14.00">读取字段 itemCode / groupId</text>
</g>
<!-- E&#45;&gt;F -->
<g id="edge5" class="edge">
<title>E&#45;&gt;F</title>
<path fill="none" stroke="black" d="M321.43,-1225.54C313.93,-1217.08 304.73,-1206.71 296.41,-1197.34"/>
<polygon fill="black" stroke="black" points="299.05,-1195.05 289.8,-1189.89 293.82,-1199.7 299.05,-1195.05"/>
</g>
<!-- G -->
<g id="node7" class="node">
<title>G</title>
<path fill="none" stroke="black" d="M337.56,-1115.73C337.56,-1115.73 203.81,-1115.73 203.81,-1115.73 197.81,-1115.73 191.81,-1109.73 191.81,-1103.73 191.81,-1103.73 191.81,-1091.73 191.81,-1091.73 191.81,-1085.73 197.81,-1079.73 203.81,-1079.73 203.81,-1079.73 337.56,-1079.73 337.56,-1079.73 343.56,-1079.73 349.56,-1085.73 349.56,-1091.73 349.56,-1091.73 349.56,-1103.73 349.56,-1103.73 349.56,-1109.73 343.56,-1115.73 337.56,-1115.73"/>
<text xml:space="preserve" text-anchor="middle" x="270.68" y="-1094.56" font-family="Helvetica,sans-Serif" font-size="14.00">按 itemCode 关联 item</text>
</g>
<!-- F&#45;&gt;G -->
<g id="edge6" class="edge">
<title>F&#45;&gt;G</title>
<path fill="none" stroke="black" d="M272.96,-1152.54C272.63,-1144.87 272.24,-1135.62 271.88,-1126.98"/>
<polygon fill="black" stroke="black" points="275.39,-1127.12 271.47,-1117.27 268.39,-1127.41 275.39,-1127.12"/>
</g>
<!-- H -->
<g id="node8" class="node">
<title>H</title>
<path fill="none" stroke="black" d="M244.36,-1038.76C244.36,-1038.76 186.51,-1018.45 186.51,-1018.45 180.85,-1016.47 180.85,-1012.49 186.51,-1010.51 186.51,-1010.51 244.36,-990.2 244.36,-990.2 250.02,-988.22 261.35,-988.22 267.01,-990.2 267.01,-990.2 324.86,-1010.51 324.86,-1010.51 330.52,-1012.49 330.52,-1016.47 324.86,-1018.45 324.86,-1018.45 267.01,-1038.76 267.01,-1038.76 261.35,-1040.74 250.02,-1040.74 244.36,-1038.76"/>
<text xml:space="preserve" text-anchor="middle" x="255.68" y="-1011.31" font-family="Helvetica,sans-Serif" font-size="14.00">商品存在?</text>
</g>
<!-- G&#45;&gt;H -->
<g id="edge7" class="edge">
<title>G&#45;&gt;H</title>
<path fill="none" stroke="black" d="M267.5,-1079.5C266.05,-1071.62 264.26,-1061.95 262.53,-1052.55"/>
<polygon fill="black" stroke="black" points="265.99,-1052.02 260.73,-1042.82 259.11,-1053.29 265.99,-1052.02"/>
</g>
<!-- X -->
<g id="node9" class="node">
<title>X</title>
<path fill="none" stroke="black" d="M155.37,-887.74C155.37,-887.74 155.37,-897.99 155.37,-897.99 155.37,-903.11 150.75,-910.45 146.12,-912.66 146.12,-912.66 119.11,-925.56 119.11,-925.56 114.49,-927.77 104.74,-929.98 99.61,-929.98 99.61,-929.98 55.76,-929.98 55.76,-929.98 50.63,-929.98 40.88,-927.77 36.26,-925.56 36.26,-925.56 9.25,-912.66 9.25,-912.66 4.62,-910.45 0,-903.11 0,-897.99 0,-897.99 0,-887.74 0,-887.74 0,-882.61 4.62,-875.28 9.25,-873.07 9.25,-873.07 36.26,-860.16 36.26,-860.16 40.88,-857.95 50.63,-855.74 55.76,-855.74 55.76,-855.74 99.61,-855.74 99.61,-855.74 104.74,-855.74 114.49,-857.95 119.11,-860.16 119.11,-860.16 146.12,-873.07 146.12,-873.07 150.75,-875.28 155.37,-882.61 155.37,-887.74"/>
<text xml:space="preserve" text-anchor="middle" x="77.68" y="-899.81" font-family="Helvetica,sans-Serif" font-size="14.00">返回失败:</text>
<text xml:space="preserve" text-anchor="middle" x="77.68" y="-879.56" font-family="Helvetica,sans-Serif" font-size="14.00">商品关联缺失</text>
</g>
<!-- H&#45;&gt;X -->
<g id="edge8" class="edge">
<title>H&#45;&gt;X</title>
<path fill="none" stroke="black" d="M228.65,-995.31C203.07,-978.12 163.93,-951.82 131.91,-930.3"/>
<polygon fill="black" stroke="black" points="134.17,-927.6 123.91,-924.93 130.26,-933.41 134.17,-927.6"/>
<text xml:space="preserve" text-anchor="middle" x="194.99" y="-954.93" font-family="Helvetica,sans-Serif" font-size="14.00">否</text>
</g>
<!-- I -->
<g id="node10" class="node">
<title>I</title>
<path fill="none" stroke="black" d="M326.31,-910.86C326.31,-910.86 185.06,-910.86 185.06,-910.86 179.06,-910.86 173.06,-904.86 173.06,-898.86 173.06,-898.86 173.06,-886.86 173.06,-886.86 173.06,-880.86 179.06,-874.86 185.06,-874.86 185.06,-874.86 326.31,-874.86 326.31,-874.86 332.31,-874.86 338.31,-880.86 338.31,-886.86 338.31,-886.86 338.31,-898.86 338.31,-898.86 338.31,-904.86 332.31,-910.86 326.31,-910.86"/>
<text xml:space="preserve" text-anchor="middle" x="255.68" y="-889.69" font-family="Helvetica,sans-Serif" font-size="14.00">合并 item 与 orderDetail</text>
</g>
<!-- H&#45;&gt;I -->
<g id="edge9" class="edge">
<title>H&#45;&gt;I</title>
<path fill="none" stroke="black" d="M255.68,-985.74C255.68,-966.74 255.68,-941.61 255.68,-922.43"/>
<polygon fill="black" stroke="black" points="259.18,-922.61 255.68,-912.61 252.18,-922.61 259.18,-922.61"/>
<text xml:space="preserve" text-anchor="middle" x="262.81" y="-954.93" font-family="Helvetica,sans-Serif" font-size="14.00">是</text>
</g>
<!-- J -->
<g id="node11" class="node">
<title>J</title>
<path fill="none" stroke="black" d="M243.53,-814.31C243.53,-814.31 156.84,-779.92 156.84,-779.92 151.26,-777.7 151.26,-773.28 156.84,-771.06 156.84,-771.06 243.53,-736.67 243.53,-736.67 249.11,-734.45 260.26,-734.45 265.84,-736.67 265.84,-736.67 352.53,-771.06 352.53,-771.06 358.11,-773.28 358.11,-777.7 352.53,-779.92 352.53,-779.92 265.84,-814.31 265.84,-814.31 260.26,-816.53 249.11,-816.53 243.53,-814.31"/>
<text xml:space="preserve" text-anchor="middle" x="254.68" y="-779.82" font-family="Helvetica,sans-Serif" font-size="14.00">尺寸是否合法?</text>
<text xml:space="preserve" text-anchor="middle" x="254.68" y="-759.57" font-family="Helvetica,sans-Serif" font-size="14.00">length,... &gt; 0</text>
</g>
<!-- I&#45;&gt;J -->
<g id="edge10" class="edge">
<title>I&#45;&gt;J</title>
<path fill="none" stroke="black" d="M255.54,-874.84C255.43,-862.92 255.29,-846.29 255.15,-830.1"/>
<polygon fill="black" stroke="black" points="258.65,-830.5 255.07,-820.53 251.65,-830.56 258.65,-830.5"/>
</g>
<!-- Y -->
<g id="node12" class="node">
<title>Y</title>
<path fill="none" stroke="black" d="M157.43,-633.75C157.43,-633.75 157.43,-644 157.43,-644 157.43,-649.12 153.09,-656.98 148.76,-659.72 148.76,-659.72 131.68,-670.51 131.68,-670.51 127.35,-673.25 117.89,-675.99 112.77,-675.99 112.77,-675.99 84.6,-675.99 84.6,-675.99 79.48,-675.99 70.02,-673.25 65.69,-670.51 65.69,-670.51 48.61,-659.72 48.61,-659.72 44.28,-656.98 39.94,-649.12 39.94,-644 39.94,-644 39.94,-633.75 39.94,-633.75 39.94,-628.62 44.28,-620.76 48.61,-618.02 48.61,-618.02 65.69,-607.23 65.69,-607.23 70.02,-604.49 79.48,-601.75 84.6,-601.75 84.6,-601.75 112.77,-601.75 112.77,-601.75 117.89,-601.75 127.35,-604.49 131.68,-607.23 131.68,-607.23 148.76,-618.02 148.76,-618.02 153.09,-620.76 157.43,-628.62 157.43,-633.75"/>
<text xml:space="preserve" text-anchor="middle" x="98.68" y="-645.82" font-family="Helvetica,sans-Serif" font-size="14.00">返回失败:</text>
<text xml:space="preserve" text-anchor="middle" x="98.68" y="-625.57" font-family="Helvetica,sans-Serif" font-size="14.00">尺寸非法</text>
</g>
<!-- J&#45;&gt;Y -->
<g id="edge11" class="edge">
<title>J&#45;&gt;Y</title>
<path fill="none" stroke="black" d="M220.84,-745.28C197.67,-725.29 166.76,-698.61 141.82,-677.1"/>
<polygon fill="black" stroke="black" points="144.28,-674.59 134.42,-670.71 139.71,-679.89 144.28,-674.59"/>
<text xml:space="preserve" text-anchor="middle" x="188.49" y="-700.94" font-family="Helvetica,sans-Serif" font-size="14.00">否</text>
</g>
<!-- K -->
<g id="node13" class="node">
<title>K</title>
<path fill="none" stroke="black" d="M251.93,-654.48C251.93,-654.48 186.97,-641.26 186.97,-641.26 181.1,-640.07 181.1,-637.67 186.97,-636.48 186.97,-636.48 251.93,-623.26 251.93,-623.26 257.81,-622.07 269.56,-622.07 275.44,-623.26 275.44,-623.26 340.39,-636.48 340.39,-636.48 346.27,-637.67 346.27,-640.07 340.39,-641.26 340.39,-641.26 275.44,-654.48 275.44,-654.48 269.56,-655.67 257.81,-655.67 251.93,-654.48"/>
<text xml:space="preserve" text-anchor="middle" x="263.68" y="-633.07" font-family="Helvetica,sans-Serif" font-size="14.00">csQty == null</text>
</g>
<!-- J&#45;&gt;K -->
<g id="edge12" class="edge">
<title>J&#45;&gt;K</title>
<path fill="none" stroke="black" d="M257.46,-733C258.86,-712.09 260.52,-687.26 261.77,-668.49"/>
<polygon fill="black" stroke="black" points="265.25,-668.86 262.43,-658.65 258.27,-668.4 265.25,-668.86"/>
<text xml:space="preserve" text-anchor="middle" x="267.12" y="-700.94" font-family="Helvetica,sans-Serif" font-size="14.00">是</text>
</g>
<!-- L -->
<g id="node14" class="node">
<title>L</title>
<path fill="none" stroke="black" d="M146.68,-545.5C146.68,-545.5 40.68,-545.5 40.68,-545.5 34.68,-545.5 28.68,-539.5 28.68,-533.5 28.68,-533.5 28.68,-521.5 28.68,-521.5 28.68,-515.5 34.68,-509.5 40.68,-509.5 40.68,-509.5 146.68,-509.5 146.68,-509.5 152.68,-509.5 158.68,-515.5 158.68,-521.5 158.68,-521.5 158.68,-533.5 158.68,-533.5 158.68,-539.5 152.68,-545.5 146.68,-545.5"/>
<text xml:space="preserve" text-anchor="middle" x="93.68" y="-521.7" font-family="Helvetica,sans-Serif" font-size="14.00">quantity = &#160;quantity</text>
</g>
<!-- K&#45;&gt;L -->
<g id="edge13" class="edge">
<title>K&#45;&gt;L</title>
<path fill="none" stroke="black" d="M243.18,-624.68C215.17,-606.66 164.49,-574.05 129.98,-551.85"/>
<polygon fill="black" stroke="black" points="132.28,-549.17 121.98,-546.7 128.5,-555.06 132.28,-549.17"/>
<text xml:space="preserve" text-anchor="middle" x="185.81" y="-570.45" font-family="Helvetica,sans-Serif" font-size="14.00">是</text>
</g>
<!-- M -->
<g id="node15" class="node">
<title>M</title>
<path fill="none" stroke="black" d="M346.56,-545.5C346.56,-545.5 188.81,-545.5 188.81,-545.5 182.81,-545.5 176.81,-539.5 176.81,-533.5 176.81,-533.5 176.81,-521.5 176.81,-521.5 176.81,-515.5 182.81,-509.5 188.81,-509.5 188.81,-509.5 346.56,-509.5 346.56,-509.5 352.56,-509.5 358.56,-515.5 358.56,-521.5 358.56,-521.5 358.56,-533.5 358.56,-533.5 358.56,-539.5 352.56,-545.5 346.56,-545.5"/>
<text xml:space="preserve" text-anchor="middle" x="267.68" y="-521.7" font-family="Helvetica,sans-Serif" font-size="14.00">quantity = quantity % csQty</text>
</g>
<!-- K&#45;&gt;M -->
<g id="edge14" class="edge">
<title>K&#45;&gt;M</title>
<path fill="none" stroke="black" d="M264.31,-620.78C264.93,-603.79 265.9,-577.4 266.64,-557.19"/>
<polygon fill="black" stroke="black" points="270.13,-557.46 267,-547.34 263.13,-557.21 270.13,-557.46"/>
<text xml:space="preserve" text-anchor="middle" x="273.52" y="-570.45" font-family="Helvetica,sans-Serif" font-size="14.00">否</text>
</g>
<!-- N -->
<g id="node16" class="node">
<title>N</title>
<path fill="none" stroke="black" d="M216.98,-469.85C216.98,-469.85 160.88,-457.15 160.88,-457.15 155.03,-455.82 155.03,-453.18 160.88,-451.85 160.88,-451.85 216.98,-439.15 216.98,-439.15 222.83,-437.82 234.54,-437.82 240.39,-439.15 240.39,-439.15 296.49,-451.85 296.49,-451.85 302.34,-453.18 302.34,-455.82 296.49,-457.15 296.49,-457.15 240.39,-469.85 240.39,-469.85 234.54,-471.18 222.83,-471.18 216.98,-469.85"/>
<text xml:space="preserve" text-anchor="middle" x="228.68" y="-448.7" font-family="Helvetica,sans-Serif" font-size="14.00">quantity &gt; 0</text>
</g>
<!-- L&#45;&gt;N -->
<g id="edge15" class="edge">
<title>L&#45;&gt;N</title>
<path fill="none" stroke="black" d="M126.71,-509.13C147.68,-498.1 174.71,-483.89 195.68,-472.86"/>
<polygon fill="black" stroke="black" points="197.16,-476.03 204.39,-468.28 193.91,-469.84 197.16,-476.03"/>
</g>
<!-- M&#45;&gt;N -->
<g id="edge16" class="edge">
<title>M&#45;&gt;N</title>
<path fill="none" stroke="black" d="M258.24,-509.31C253.53,-500.73 247.73,-490.17 242.52,-480.69"/>
<polygon fill="black" stroke="black" points="245.59,-479.01 237.71,-471.93 239.46,-482.38 245.59,-479.01"/>
</g>
<!-- O -->
<g id="node17" class="node">
<title>O</title>
<path fill="none" stroke="black" d="M239.93,-374C239.93,-374 105.43,-374 105.43,-374 99.43,-374 93.43,-368 93.43,-362 93.43,-362 93.43,-350 93.43,-350 93.43,-344 99.43,-338 105.43,-338 105.43,-338 239.93,-338 239.93,-338 245.93,-338 251.93,-344 251.93,-350 251.93,-350 251.93,-362 251.93,-362 251.93,-368 245.93,-374 239.93,-374"/>
<text xml:space="preserve" text-anchor="middle" x="172.68" y="-352.82" font-family="Helvetica,sans-Serif" font-size="14.00">该商品不进入调度集合</text>
</g>
<!-- N&#45;&gt;O -->
<g id="edge17" class="edge">
<title>N&#45;&gt;O</title>
<path fill="none" stroke="black" d="M219.93,-438.42C211.5,-423.89 198.55,-401.57 188.34,-383.97"/>
<polygon fill="black" stroke="black" points="191.5,-382.45 183.46,-375.56 185.45,-385.97 191.5,-382.45"/>
<text xml:space="preserve" text-anchor="middle" x="214.47" y="-405.2" font-family="Helvetica,sans-Serif" font-size="14.00">否</text>
</g>
<!-- P -->
<g id="node18" class="node">
<title>P</title>
<path fill="none" stroke="black" d="M359.43,-380.25C359.43,-380.25 281.93,-380.25 281.93,-380.25 275.93,-380.25 269.93,-374.25 269.93,-368.25 269.93,-368.25 269.93,-343.75 269.93,-343.75 269.93,-337.75 275.93,-331.75 281.93,-331.75 281.93,-331.75 359.43,-331.75 359.43,-331.75 365.43,-331.75 371.43,-337.75 371.43,-343.75 371.43,-343.75 371.43,-368.25 371.43,-368.25 371.43,-374.25 365.43,-380.25 359.43,-380.25"/>
<text xml:space="preserve" text-anchor="middle" x="320.68" y="-362.95" font-family="Helvetica,sans-Serif" font-size="14.00">加入调度集合</text>
<text xml:space="preserve" text-anchor="middle" x="320.68" y="-342.7" font-family="Helvetica,sans-Serif" font-size="14.00">保留 groupId</text>
</g>
<!-- N&#45;&gt;P -->
<g id="edge18" class="edge">
<title>N&#45;&gt;P</title>
<path fill="none" stroke="black" d="M242.26,-439.26C254.89,-426.01 274.15,-405.81 290.42,-388.74"/>
<polygon fill="black" stroke="black" points="292.72,-391.41 297.09,-381.75 287.65,-386.57 292.72,-391.41"/>
<text xml:space="preserve" text-anchor="middle" x="287.32" y="-405.2" font-family="Helvetica,sans-Serif" font-size="14.00">是</text>
</g>
<!-- Q -->
<g id="node19" class="node">
<title>Q</title>
<path fill="none" stroke="black" d="M308.96,-292.2C308.96,-292.2 202.41,-269.05 202.41,-269.05 196.55,-267.77 196.55,-265.23 202.41,-263.95 202.41,-263.95 308.96,-240.8 308.96,-240.8 314.82,-239.52 326.55,-239.52 332.41,-240.8 332.41,-240.8 438.96,-263.95 438.96,-263.95 444.82,-265.23 444.82,-267.77 438.96,-269.05 438.96,-269.05 332.41,-292.2 332.41,-292.2 326.55,-293.48 314.82,-293.48 308.96,-292.2"/>
<text xml:space="preserve" text-anchor="middle" x="320.68" y="-263.32" font-family="Helvetica,sans-Serif" font-size="14.00">下一条 orderDetail</text>
</g>
<!-- O&#45;&gt;Q -->
<g id="edge19" class="edge">
<title>O&#45;&gt;Q</title>
<path fill="none" stroke="black" d="M202.28,-337.5C223.63,-324.88 252.81,-307.63 276.86,-293.41"/>
<polygon fill="black" stroke="black" points="278.35,-296.6 285.17,-288.5 274.78,-290.57 278.35,-296.6"/>
</g>
<!-- P&#45;&gt;Q -->
<g id="edge20" class="edge">
<title>P&#45;&gt;Q</title>
<path fill="none" stroke="black" d="M320.68,-331.55C320.68,-323.83 320.68,-315.01 320.68,-306.45"/>
<polygon fill="black" stroke="black" points="324.18,-306.57 320.68,-296.57 317.18,-306.57 324.18,-306.57"/>
</g>
<!-- Q&#45;&gt;E -->
<g id="edge21" class="edge">
<title>Q&#45;&gt;E</title>
<path fill="none" stroke="black" d="M354.65,-287.47C376.06,-302.86 399.68,-326.35 399.68,-355 399.68,-1171.73 399.68,-1171.73 399.68,-1171.73 399.68,-1190.29 387.49,-1206.26 373.83,-1218.33"/>
<polygon fill="black" stroke="black" points="371.96,-1215.35 366.41,-1224.37 376.37,-1220.77 371.96,-1215.35"/>
<text xml:space="preserve" text-anchor="middle" x="449.56" y="-772.32" font-family="Helvetica,sans-Serif" font-size="14.00">还有 orderDetail</text>
</g>
<!-- R -->
<g id="node20" class="node">
<title>R</title>
<path fill="none" stroke="black" d="M393.93,-182C393.93,-182 247.43,-182 247.43,-182 241.43,-182 235.43,-176 235.43,-170 235.43,-170 235.43,-158 235.43,-158 235.43,-152 241.43,-146 247.43,-146 247.43,-146 393.93,-146 393.93,-146 399.93,-146 405.93,-152 405.93,-158 405.93,-158 405.93,-170 405.93,-170 405.93,-176 399.93,-182 393.93,-182"/>
<text xml:space="preserve" text-anchor="middle" x="320.68" y="-160.82" font-family="Helvetica,sans-Serif" font-size="14.00">按 groupId 聚合调度集合</text>
</g>
<!-- Q&#45;&gt;R -->
<g id="edge22" class="edge">
<title>Q&#45;&gt;R</title>
<path fill="none" stroke="black" d="M320.68,-237.77C320.68,-224.02 320.68,-207.43 320.68,-193.57"/>
<polygon fill="black" stroke="black" points="324.18,-193.74 320.68,-183.74 317.18,-193.74 324.18,-193.74"/>
<text xml:space="preserve" text-anchor="middle" x="334.93" y="-206.95" font-family="Helvetica,sans-Serif" font-size="14.00">结束</text>
</g>
<!-- T -->
<g id="node21" class="node">
<title>T</title>
<path fill="none" stroke="black" d="M492.93,-109C492.93,-109 148.43,-109 148.43,-109 142.43,-109 136.43,-103 136.43,-97 136.43,-97 136.43,-85 136.43,-85 136.43,-79 142.43,-73 148.43,-73 148.43,-73 492.93,-73 492.93,-73 498.93,-73 504.93,-79 504.93,-85 504.93,-85 504.93,-97 504.93,-97 504.93,-103 498.93,-109 492.93,-109"/>
<text xml:space="preserve" text-anchor="middle" x="320.68" y="-87.83" font-family="Helvetica,sans-Serif" font-size="14.00">根据指定精度离散化所有 container 和调度集合内的 item</text>
</g>
<!-- R&#45;&gt;T -->
<g id="edge23" class="edge">
<title>R&#45;&gt;T</title>
<path fill="none" stroke="black" d="M320.68,-145.81C320.68,-138.23 320.68,-129.1 320.68,-120.54"/>
<polygon fill="black" stroke="black" points="324.18,-120.54 320.68,-110.54 317.18,-120.54 324.18,-120.54"/>
</g>
<!-- S -->
<g id="node22" class="node">
<title>S</title>
<path fill="none" stroke="black" d="M380.06,-36C380.06,-36 261.31,-36 261.31,-36 255.31,-36 249.31,-30 249.31,-24 249.31,-24 249.31,-12 249.31,-12 249.31,-6 255.31,0 261.31,0 261.31,0 380.06,0 380.06,0 386.06,0 392.06,-6 392.06,-12 392.06,-12 392.06,-24 392.06,-24 392.06,-30 386.06,-36 380.06,-36"/>
<text xml:space="preserve" text-anchor="middle" x="320.68" y="-14.82" font-family="Helvetica,sans-Serif" font-size="14.00">返回标准化 Request</text>
</g>
<!-- T&#45;&gt;S -->
<g id="edge24" class="edge">
<title>T&#45;&gt;S</title>
<path fill="none" stroke="black" d="M320.68,-72.81C320.68,-65.23 320.68,-56.1 320.68,-47.54"/>
<polygon fill="black" stroke="black" points="324.18,-47.54 320.68,-37.54 317.18,-47.54 324.18,-47.54"/>
</g>
</g>
</svg>
