<?xml version="1.0" encoding="UTF-8" standalone="no"?>
<!DOCTYPE svg PUBLIC "-//W3C//DTD SVG 1.1//EN"
 "http://www.w3.org/Graphics/SVG/1.1/DTD/svg11.dtd">
<!-- Generated by graphviz version 14.1.0 (0)
 -->
<!-- Title: LclRulesFlow Pages: 1 -->
<svg width="976pt" height="1341pt"
 viewBox="0.00 0.00 976.00 1341.00" xmlns="http://www.w3.org/2000/svg" xmlns:xlink="http://www.w3.org/1999/xlink">
<g id="graph0" class="graph" transform="scale(1 1) rotate(0) translate(4 1337.49)">
<title>LclRulesFlow</title>
<polygon fill="white" stroke="none" points="-4,4 -4,-1337.49 971.62,-1337.49 971.62,4 -4,4"/>
<!-- A -->
<g id="node1" class="node">
<title>A</title>
<path fill="none" stroke="black" d="M756.5,-1333.49C756.5,-1333.49 670.75,-1333.49 670.75,-1333.49 664.75,-1333.49 658.75,-1327.49 658.75,-1321.49 658.75,-1321.49 658.75,-1309.49 658.75,-1309.49 658.75,-1303.49 664.75,-1297.49 670.75,-1297.49 670.75,-1297.49 756.5,-1297.49 756.5,-1297.49 762.5,-1297.49 768.5,-1303.49 768.5,-1309.49 768.5,-1309.49 768.5,-1321.49 768.5,-1321.49 768.5,-1327.49 762.5,-1333.49 756.5,-1333.49"/>
<text xml:space="preserve" text-anchor="middle" x="713.62" y="-1312.32" font-family="Helvetica,sans-Serif" font-size="14.00">lclRules 式编排</text>
</g>
<!-- B -->
<g id="node2" class="node">
<title>B</title>
<path fill="none" stroke="black" d="M752.38,-1260.49C752.38,-1260.49 674.88,-1260.49 674.88,-1260.49 668.88,-1260.49 662.88,-1254.49 662.88,-1248.49 662.88,-1248.49 662.88,-1236.49 662.88,-1236.49 662.88,-1230.49 668.88,-1224.49 674.88,-1224.49 674.88,-1224.49 752.38,-1224.49 752.38,-1224.49 758.38,-1224.49 764.38,-1230.49 764.38,-1236.49 764.38,-1236.49 764.38,-1248.49 764.38,-1248.49 764.38,-1254.49 758.38,-1260.49 752.38,-1260.49"/>
<text xml:space="preserve" text-anchor="middle" x="713.62" y="-1239.32" font-family="Helvetica,sans-Serif" font-size="14.00">使用当前规则</text>
</g>
<!-- A&#45;&gt;B -->
<g id="edge1" class="edge">
<title>A&#45;&gt;B</title>
<path fill="none" stroke="black" d="M713.62,-1297.3C713.62,-1289.72 713.62,-1280.59 713.62,-1272.03"/>
<polygon fill="black" stroke="black" points="717.13,-1272.03 713.63,-1262.03 710.13,-1272.03 717.13,-1272.03"/>
</g>
<!-- C -->
<g id="node3" class="node">
<title>C</title>
<path fill="none" stroke="black" d="M647,-1187.49C647,-1187.49 498.25,-1187.49 498.25,-1187.49 492.25,-1187.49 486.25,-1181.49 486.25,-1175.49 486.25,-1175.49 486.25,-1163.49 486.25,-1163.49 486.25,-1157.49 492.25,-1151.49 498.25,-1151.49 498.25,-1151.49 647,-1151.49 647,-1151.49 653,-1151.49 659,-1157.49 659,-1163.49 659,-1163.49 659,-1175.49 659,-1175.49 659,-1181.49 653,-1187.49 647,-1187.49"/>
<text xml:space="preserve" text-anchor="middle" x="572.62" y="-1166.32" font-family="Helvetica,sans-Serif" font-size="14.00">按当前规则提取商品子集</text>
</g>
<!-- B&#45;&gt;C -->
<g id="edge2" class="edge">
<title>B&#45;&gt;C</title>
<path fill="none" stroke="black" d="M679.13,-1224.12C660.53,-1214.75 637.35,-1203.08 617.37,-1193.02"/>
<polygon fill="black" stroke="black" points="619.11,-1189.98 608.6,-1188.61 615.96,-1196.23 619.11,-1189.98"/>
</g>
<!-- D -->
<g id="node4" class="node">
<title>D</title>
<path fill="none" stroke="black" d="M478.75,-1112.77C478.75,-1112.77 308,-1087.97 308,-1087.97 302.06,-1087.1 302.06,-1085.38 308,-1084.52 308,-1084.52 478.75,-1059.72 478.75,-1059.72 484.69,-1058.85 496.56,-1058.85 502.5,-1059.72 502.5,-1059.72 673.25,-1084.52 673.25,-1084.52 679.19,-1085.38 679.19,-1087.1 673.25,-1087.97 673.25,-1087.97 502.5,-1112.77 502.5,-1112.77 496.56,-1113.63 484.69,-1113.63 478.75,-1112.77"/>
<text xml:space="preserve" text-anchor="middle" x="490.62" y="-1083.07" font-family="Helvetica,sans-Serif" font-size="14.00">子集是否等于剩余全部商品?</text>
</g>
<!-- C&#45;&gt;D -->
<g id="edge3" class="edge">
<title>C&#45;&gt;D</title>
<path fill="none" stroke="black" d="M555.23,-1151.26C545.78,-1141.89 533.78,-1130 522.69,-1119.01"/>
<polygon fill="black" stroke="black" points="525.47,-1116.84 515.91,-1112.29 520.55,-1121.82 525.47,-1116.84"/>
</g>
<!-- E -->
<g id="node5" class="node">
<title>E</title>
<path fill="none" stroke="black" d="M479.38,-1001.74C479.38,-1001.74 401.88,-1001.74 401.88,-1001.74 395.88,-1001.74 389.88,-995.74 389.88,-989.74 389.88,-989.74 389.88,-970.49 389.88,-970.49 389.88,-964.49 395.88,-958.49 401.88,-958.49 401.88,-958.49 479.38,-958.49 479.38,-958.49 485.38,-958.49 491.38,-964.49 491.38,-970.49 491.38,-970.49 491.38,-989.74 491.38,-989.74 491.38,-995.74 485.38,-1001.74 479.38,-1001.74"/>
<text xml:space="preserve" text-anchor="middle" x="440.62" y="-984.44" font-family="Helvetica,sans-Serif" font-size="14.00">flag = 0:</text>
<text xml:space="preserve" text-anchor="middle" x="440.62" y="-969.44" font-family="Helvetica,sans-Serif" font-size="14.00">不是最后一批</text>
</g>
<!-- D&#45;&gt;E -->
<g id="edge4" class="edge">
<title>D&#45;&gt;E</title>
<path fill="none" stroke="black" d="M478.27,-1059.5C471.42,-1045.25 462.87,-1027.44 455.64,-1012.39"/>
<polygon fill="black" stroke="black" points="458.8,-1010.88 451.32,-1003.38 452.49,-1013.91 458.8,-1010.88"/>
<text xml:space="preserve" text-anchor="middle" x="475.74" y="-1026.69" font-family="Helvetica,sans-Serif" font-size="14.00">否</text>
</g>
<!-- F -->
<g id="node6" class="node">
<title>F</title>
<path fill="none" stroke="black" d="M580.5,-940.49C580.5,-940.49 488.75,-940.49 488.75,-940.49 482.75,-940.49 476.75,-934.49 476.75,-928.49 476.75,-928.49 476.75,-909.24 476.75,-909.24 476.75,-903.24 482.75,-897.24 488.75,-897.24 488.75,-897.24 580.5,-897.24 580.5,-897.24 586.5,-897.24 592.5,-903.24 592.5,-909.24 592.5,-909.24 592.5,-928.49 592.5,-928.49 592.5,-934.49 586.5,-940.49 580.5,-940.49"/>
<text xml:space="preserve" text-anchor="middle" x="534.62" y="-923.19" font-family="Helvetica,sans-Serif" font-size="14.00">flag = 1:</text>
<text xml:space="preserve" text-anchor="middle" x="534.62" y="-908.19" font-family="Helvetica,sans-Serif" font-size="14.00">已经是最后一批</text>
</g>
<!-- D&#45;&gt;F -->
<g id="edge5" class="edge">
<title>D&#45;&gt;F</title>
<path fill="none" stroke="black" d="M497.69,-1058.67C505.43,-1029.61 517.82,-983.03 526.09,-951.95"/>
<polygon fill="black" stroke="black" points="529.46,-952.89 528.65,-942.32 522.7,-951.09 529.46,-952.89"/>
<text xml:space="preserve" text-anchor="middle" x="515.07" y="-1026.69" font-family="Helvetica,sans-Serif" font-size="14.00">是</text>
</g>
<!-- G -->
<g id="node7" class="node">
<title>G</title>
<path fill="none" stroke="black" d="M473.75,-879.24C473.75,-879.24 353.5,-879.24 353.5,-879.24 347.5,-879.24 341.5,-873.24 341.5,-867.24 341.5,-867.24 341.5,-827.74 341.5,-827.74 341.5,-821.74 347.5,-815.74 353.5,-815.74 353.5,-815.74 473.75,-815.74 473.75,-815.74 479.75,-815.74 485.75,-821.74 485.75,-827.74 485.75,-827.74 485.75,-867.24 485.75,-867.24 485.75,-873.24 479.75,-879.24 473.75,-879.24"/>
<text xml:space="preserve" text-anchor="middle" x="413.62" y="-861.94" font-family="Helvetica,sans-Serif" font-size="14.00">flag = 0:</text>
<text xml:space="preserve" text-anchor="middle" x="413.62" y="-846.94" font-family="Helvetica,sans-Serif" font-size="14.00">以当前规则商品子集</text>
<text xml:space="preserve" text-anchor="middle" x="413.62" y="-826.69" font-family="Helvetica,sans-Serif" font-size="14.00">从小到大尝试候选箱</text>
</g>
<!-- E&#45;&gt;G -->
<g id="edge6" class="edge">
<title>E&#45;&gt;G</title>
<path fill="none" stroke="black" d="M436.29,-958.13C432.54,-939.99 427,-913.22 422.34,-890.67"/>
<polygon fill="black" stroke="black" points="425.83,-890.23 420.37,-881.14 418.97,-891.65 425.83,-890.23"/>
</g>
<!-- U -->
<g id="node19" class="node">
<title>U</title>
<path fill="none" stroke="black" d="M678.38,-797.74C678.38,-797.74 450.88,-797.74 450.88,-797.74 444.88,-797.74 438.88,-791.74 438.88,-785.74 438.88,-785.74 438.88,-766.49 438.88,-766.49 438.88,-760.49 444.88,-754.49 450.88,-754.49 450.88,-754.49 678.38,-754.49 678.38,-754.49 684.38,-754.49 690.38,-760.49 690.38,-766.49 690.38,-766.49 690.38,-785.74 690.38,-785.74 690.38,-791.74 684.38,-797.74 678.38,-797.74"/>
<text xml:space="preserve" text-anchor="middle" x="564.62" y="-780.44" font-family="Helvetica,sans-Serif" font-size="14.00">flag = 1:</text>
<text xml:space="preserve" text-anchor="middle" x="564.62" y="-765.44" font-family="Helvetica,sans-Serif" font-size="14.00">当前规则已覆盖全部剩余商品【图3】</text>
</g>
<!-- F&#45;&gt;U -->
<g id="edge20" class="edge">
<title>F&#45;&gt;U</title>
<path fill="none" stroke="black" d="M539.12,-896.79C544.07,-873.55 552.1,-835.87 557.83,-809.01"/>
<polygon fill="black" stroke="black" points="561.22,-809.86 559.89,-799.35 554.38,-808.4 561.22,-809.86"/>
</g>
<!-- I -->
<g id="node8" class="node">
<title>I</title>
<path fill="none" stroke="black" d="M283.15,-732.98C283.15,-732.98 147.6,-691.5 147.6,-691.5 141.86,-689.75 141.86,-686.23 147.6,-684.48 147.6,-684.48 283.15,-643 283.15,-643 288.89,-641.25 300.36,-641.25 306.1,-643 306.1,-643 441.65,-684.48 441.65,-684.48 447.39,-686.23 447.39,-689.75 441.65,-691.5 441.65,-691.5 306.1,-732.98 306.1,-732.98 300.36,-734.73 288.89,-734.73 283.15,-732.98"/>
<text xml:space="preserve" text-anchor="middle" x="294.62" y="-694.94" font-family="Helvetica,sans-Serif" font-size="14.00">当前规则商品子集</text>
<text xml:space="preserve" text-anchor="middle" x="294.62" y="-674.69" font-family="Helvetica,sans-Serif" font-size="14.00">是否能装满某个箱子？</text>
</g>
<!-- G&#45;&gt;I -->
<g id="edge7" class="edge">
<title>G&#45;&gt;I</title>
<path fill="none" stroke="black" d="M390.11,-815.37C373.22,-793.02 350.13,-762.46 330.89,-736.99"/>
<polygon fill="black" stroke="black" points="333.73,-734.94 324.91,-729.07 328.14,-739.16 333.73,-734.94"/>
</g>
<!-- J -->
<g id="node9" class="node">
<title>J</title>
<path fill="none" stroke="black" d="M441.5,-583.24C441.5,-583.24 349.75,-583.24 349.75,-583.24 343.75,-583.24 337.75,-577.24 337.75,-571.24 337.75,-571.24 337.75,-546.74 337.75,-546.74 337.75,-540.74 343.75,-534.74 349.75,-534.74 349.75,-534.74 441.5,-534.74 441.5,-534.74 447.5,-534.74 453.5,-540.74 453.5,-546.74 453.5,-546.74 453.5,-571.24 453.5,-571.24 453.5,-577.24 447.5,-583.24 441.5,-583.24"/>
<text xml:space="preserve" text-anchor="middle" x="395.62" y="-565.94" font-family="Helvetica,sans-Serif" font-size="14.00">当前规则太严格</text>
<text xml:space="preserve" text-anchor="middle" x="395.62" y="-545.69" font-family="Helvetica,sans-Serif" font-size="14.00">该箱还未被装满</text>
</g>
<!-- I&#45;&gt;J -->
<g id="edge8" class="edge">
<title>I&#45;&gt;J</title>
<path fill="none" stroke="black" d="M325.2,-648.54C339.54,-630.51 356.43,-609.27 370.08,-592.12"/>
<polygon fill="black" stroke="black" points="372.46,-594.75 375.94,-584.74 366.98,-590.39 372.46,-594.75"/>
<text xml:space="preserve" text-anchor="middle" x="367.2" y="-608.19" font-family="Helvetica,sans-Serif" font-size="14.00">否</text>
</g>
<!-- M -->
<g id="node13" class="node">
<title>M</title>
<path fill="none" stroke="black" d="M189.25,-583.24C189.25,-583.24 12,-583.24 12,-583.24 6,-583.24 0,-577.24 0,-571.24 0,-571.24 0,-546.74 0,-546.74 0,-540.74 6,-534.74 12,-534.74 12,-534.74 189.25,-534.74 189.25,-534.74 195.25,-534.74 201.25,-540.74 201.25,-546.74 201.25,-546.74 201.25,-571.24 201.25,-571.24 201.25,-577.24 195.25,-583.24 189.25,-583.24"/>
<text xml:space="preserve" text-anchor="middle" x="100.62" y="-565.94" font-family="Helvetica,sans-Serif" font-size="14.00">当前规则商品子集未全部装入</text>
<text xml:space="preserve" text-anchor="middle" x="100.62" y="-545.69" font-family="Helvetica,sans-Serif" font-size="14.00">箱已经装满</text>
</g>
<!-- I&#45;&gt;M -->
<g id="edge9" class="edge">
<title>I&#45;&gt;M</title>
<path fill="none" stroke="black" d="M244.67,-654.28C214.17,-634.32 175.5,-609.01 145.9,-589.63"/>
<polygon fill="black" stroke="black" points="148.18,-586.94 137.9,-584.39 144.35,-592.8 148.18,-586.94"/>
<text xml:space="preserve" text-anchor="middle" x="198.93" y="-608.19" font-family="Helvetica,sans-Serif" font-size="14.00">是</text>
</g>
<!-- Q -->
<g id="node10" class="node">
<title>Q</title>
<path fill="none" stroke="black" d="M440.75,-496.02C440.75,-496.02 270,-471.22 270,-471.22 264.06,-470.35 264.06,-468.63 270,-467.77 270,-467.77 440.75,-442.97 440.75,-442.97 446.69,-442.1 458.56,-442.1 464.5,-442.97 464.5,-442.97 635.25,-467.77 635.25,-467.77 641.19,-468.63 641.19,-470.35 635.25,-471.22 635.25,-471.22 464.5,-496.02 464.5,-496.02 458.56,-496.88 446.69,-496.88 440.75,-496.02"/>
<text xml:space="preserve" text-anchor="middle" x="452.62" y="-466.32" font-family="Helvetica,sans-Serif" font-size="14.00">同规则下是否还有更大子集?</text>
</g>
<!-- J&#45;&gt;Q -->
<g id="edge10" class="edge">
<title>J&#45;&gt;Q</title>
<path fill="none" stroke="black" d="M410.9,-534.54C416.79,-525.51 423.64,-514.99 430.07,-505.11"/>
<polygon fill="black" stroke="black" points="432.96,-507.09 435.48,-496.81 427.09,-503.27 432.96,-507.09"/>
</g>
<!-- Q&#45;&gt;B -->
<g id="edge12" class="edge">
<title>Q&#45;&gt;B</title>
<path fill="none" stroke="black" d="M547.96,-484.3C622.52,-497.87 713.62,-521.85 713.62,-557.99 713.62,-1170.49 713.62,-1170.49 713.62,-1170.49 713.62,-1184.41 713.62,-1199.86 713.62,-1212.79"/>
<polygon fill="black" stroke="black" points="710.13,-1212.76 713.63,-1222.76 717.13,-1212.76 710.13,-1212.76"/>
<text xml:space="preserve" text-anchor="middle" x="720.75" y="-915.69" font-family="Helvetica,sans-Serif" font-size="14.00">是</text>
</g>
<!-- K -->
<g id="node11" class="node">
<title>K</title>
<path fill="none" stroke="black" d="M440.77,-383.13C440.77,-383.13 284.23,-358.6 284.23,-358.6 278.3,-357.67 278.3,-355.81 284.23,-354.88 284.23,-354.88 440.77,-330.35 440.77,-330.35 446.7,-329.42 458.55,-329.42 464.48,-330.35 464.48,-330.35 621.02,-354.88 621.02,-354.88 626.95,-355.81 626.95,-357.67 621.02,-358.6 621.02,-358.6 464.48,-383.13 464.48,-383.13 458.55,-384.06 446.7,-384.06 440.77,-383.13"/>
<text xml:space="preserve" text-anchor="middle" x="452.62" y="-353.57" font-family="Helvetica,sans-Serif" font-size="14.00">是否还有更低优先级规则?</text>
</g>
<!-- Q&#45;&gt;K -->
<g id="edge11" class="edge">
<title>Q&#45;&gt;K</title>
<path fill="none" stroke="black" d="M452.62,-440.83C452.62,-427.48 452.62,-411.24 452.62,-396.67"/>
<polygon fill="black" stroke="black" points="456.13,-396.95 452.63,-386.95 449.13,-396.95 456.13,-396.95"/>
<text xml:space="preserve" text-anchor="middle" x="459.75" y="-409.94" font-family="Helvetica,sans-Serif" font-size="14.00">否</text>
</g>
<!-- L -->
<g id="node12" class="node">
<title>L</title>
<path fill="none" stroke="black" d="M653.12,-255.87C653.12,-255.87 496.12,-255.87 496.12,-255.87 490.12,-255.87 484.12,-249.87 484.12,-243.87 484.12,-243.87 484.12,-231.87 484.12,-231.87 484.12,-225.87 490.12,-219.87 496.12,-219.87 496.12,-219.87 653.12,-219.87 653.12,-219.87 659.12,-219.87 665.12,-225.87 665.12,-231.87 665.12,-231.87 665.12,-243.87 665.12,-243.87 665.12,-249.87 659.12,-255.87 653.12,-255.87"/>
<text xml:space="preserve" text-anchor="middle" x="574.62" y="-234.69" font-family="Helvetica,sans-Serif" font-size="14.00">当前规则=更低优先级规则</text>
</g>
<!-- K&#45;&gt;L -->
<g id="edge13" class="edge">
<title>K&#45;&gt;L</title>
<path fill="none" stroke="black" d="M477.31,-332.09C498,-312.27 527.44,-284.07 548.51,-263.88"/>
<polygon fill="black" stroke="black" points="550.81,-266.53 555.61,-257.08 545.97,-261.47 550.81,-266.53"/>
<text xml:space="preserve" text-anchor="middle" x="528.05" y="-297.19" font-family="Helvetica,sans-Serif" font-size="14.00">是</text>
</g>
<!-- S -->
<g id="node17" class="node">
<title>S</title>
<path fill="none" stroke="black" d="M454.25,-272.24C454.25,-272.24 211,-272.24 211,-272.24 205,-272.24 199,-266.24 199,-260.24 199,-260.24 199,-215.49 199,-215.49 199,-209.49 205,-203.49 211,-203.49 211,-203.49 454.25,-203.49 454.25,-203.49 460.25,-203.49 466.25,-209.49 466.25,-215.49 466.25,-215.49 466.25,-260.24 466.25,-260.24 466.25,-266.24 460.25,-272.24 454.25,-272.24"/>
<text xml:space="preserve" text-anchor="middle" x="332.62" y="-254.94" font-family="Helvetica,sans-Serif" font-size="14.00">兜底路径:</text>
<text xml:space="preserve" text-anchor="middle" x="332.62" y="-234.69" font-family="Helvetica,sans-Serif" font-size="14.00">对全部剩余商品</text>
<text xml:space="preserve" text-anchor="middle" x="332.62" y="-214.44" font-family="Helvetica,sans-Serif" font-size="14.00">按类似 NO_LIMIT 方式强制装箱【图3】</text>
</g>
<!-- K&#45;&gt;S -->
<g id="edge15" class="edge">
<title>K&#45;&gt;S</title>
<path fill="none" stroke="black" d="M428.34,-332.09C413.14,-317.28 393.12,-297.79 375.33,-280.46"/>
<polygon fill="black" stroke="black" points="378.02,-278.2 368.42,-273.73 373.14,-283.21 378.02,-278.2"/>
<text xml:space="preserve" text-anchor="middle" x="410.5" y="-297.19" font-family="Helvetica,sans-Serif" font-size="14.00">否</text>
</g>
<!-- L&#45;&gt;B -->
<g id="edge14" class="edge">
<title>L&#45;&gt;B</title>
<path fill="none" stroke="black" d="M615.23,-256.28C667.49,-280 751.62,-323.24 751.62,-355.74 751.62,-1170.49 751.62,-1170.49 751.62,-1170.49 751.62,-1186.53 743.99,-1202.46 735.56,-1215.15"/>
<polygon fill="black" stroke="black" points="732.96,-1212.78 729.96,-1222.94 738.64,-1216.87 732.96,-1212.78"/>
</g>
<!-- N -->
<g id="node14" class="node">
<title>N</title>
<path fill="none" stroke="black" d="M172.38,-487.49C172.38,-487.49 94.88,-487.49 94.88,-487.49 88.88,-487.49 82.88,-481.49 82.88,-475.49 82.88,-475.49 82.88,-463.49 82.88,-463.49 82.88,-457.49 88.88,-451.49 94.88,-451.49 94.88,-451.49 172.38,-451.49 172.38,-451.49 178.38,-451.49 184.38,-457.49 184.38,-463.49 184.38,-463.49 184.38,-475.49 184.38,-475.49 184.38,-481.49 178.38,-487.49 172.38,-487.49"/>
<text xml:space="preserve" text-anchor="middle" x="133.62" y="-466.32" font-family="Helvetica,sans-Serif" font-size="14.00">锁定本箱装法</text>
</g>
<!-- M&#45;&gt;N -->
<g id="edge17" class="edge">
<title>M&#45;&gt;N</title>
<path fill="none" stroke="black" d="M109.47,-534.54C113.66,-523.42 118.71,-510.04 123.1,-498.4"/>
<polygon fill="black" stroke="black" points="126.27,-499.9 126.53,-489.31 119.72,-497.43 126.27,-499.9"/>
</g>
<!-- O -->
<g id="node15" class="node">
<title>O</title>
<path fill="none" stroke="black" d="M236.62,-380.99C236.62,-380.99 130.62,-380.99 130.62,-380.99 124.63,-380.99 118.62,-374.99 118.62,-368.99 118.62,-368.99 118.62,-344.49 118.62,-344.49 118.62,-338.49 124.62,-332.49 130.62,-332.49 130.62,-332.49 236.62,-332.49 236.62,-332.49 242.62,-332.49 248.62,-338.49 248.62,-344.49 248.62,-344.49 248.62,-368.99 248.62,-368.99 248.62,-374.99 242.62,-380.99 236.62,-380.99"/>
<text xml:space="preserve" text-anchor="middle" x="183.62" y="-363.69" font-family="Helvetica,sans-Serif" font-size="14.00">从剩余商品中删除</text>
<text xml:space="preserve" text-anchor="middle" x="183.62" y="-343.44" font-family="Helvetica,sans-Serif" font-size="14.00">本箱已装商品</text>
</g>
<!-- N&#45;&gt;O -->
<g id="edge18" class="edge">
<title>N&#45;&gt;O</title>
<path fill="none" stroke="black" d="M141.44,-451.19C148.62,-435.27 159.48,-411.23 168.38,-391.52"/>
<polygon fill="black" stroke="black" points="171.53,-393.03 172.46,-382.47 165.15,-390.15 171.53,-393.03"/>
</g>
<!-- O&#45;&gt;I -->
<g id="edge19" class="edge">
<title>O&#45;&gt;I</title>
<path fill="none" stroke="black" d="M191.51,-381.12C209.06,-433.19 251.77,-559.86 276.36,-632.81"/>
<polygon fill="black" stroke="black" points="273,-633.82 279.52,-642.17 279.64,-631.58 273,-633.82"/>
</g>
<!-- R -->
<g id="node16" class="node">
<title>R</title>
<path fill="none" stroke="black" d="M750.62,-36C750.62,-36 644.62,-36 644.62,-36 638.62,-36 632.62,-30 632.62,-24 632.62,-24 632.62,-12 632.62,-12 632.62,-6 638.62,0 644.62,0 644.62,0 750.62,0 750.62,0 756.62,0 762.62,-6 762.62,-12 762.62,-12 762.62,-24 762.62,-24 762.62,-30 756.62,-36 750.62,-36"/>
<text xml:space="preserve" text-anchor="middle" x="697.62" y="-14.82" font-family="Helvetica,sans-Serif" font-size="14.00">返回拼箱成功结果</text>
</g>
<!-- T -->
<g id="node18" class="node">
<title>T</title>
<path fill="none" stroke="black" d="M692.51,-105C692.51,-105 692.51,-115.25 692.51,-115.25 692.51,-120.37 687.61,-126.99 682.7,-128.48 682.7,-128.48 630.92,-144.25 630.92,-144.25 626.01,-145.75 615.99,-147.24 610.86,-147.24 610.86,-147.24 530.39,-147.24 530.39,-147.24 525.26,-147.24 515.24,-145.75 510.33,-144.25 510.33,-144.25 458.55,-128.48 458.55,-128.48 453.64,-126.99 448.74,-120.37 448.74,-115.25 448.74,-115.25 448.74,-105 448.74,-105 448.74,-99.87 453.64,-93.25 458.55,-91.76 458.55,-91.76 510.33,-75.99 510.33,-75.99 515.24,-74.49 525.26,-73 530.39,-73 530.39,-73 610.86,-73 610.86,-73 615.99,-73 626.01,-74.49 630.92,-75.99 630.92,-75.99 682.7,-91.76 682.7,-91.76 687.61,-93.25 692.51,-99.87 692.51,-105"/>
<text xml:space="preserve" text-anchor="middle" x="570.62" y="-117.07" font-family="Helvetica,sans-Serif" font-size="14.00">兜底装箱结束后</text>
<text xml:space="preserve" text-anchor="middle" x="570.62" y="-96.82" font-family="Helvetica,sans-Serif" font-size="14.00">返回失败语义 code = 1</text>
</g>
<!-- S&#45;&gt;T -->
<g id="edge16" class="edge">
<title>S&#45;&gt;T</title>
<path fill="none" stroke="black" d="M396.72,-203C428.16,-186.39 466.15,-166.32 498.6,-149.18"/>
<polygon fill="black" stroke="black" points="499.93,-152.43 507.14,-144.66 496.66,-146.24 499.93,-152.43"/>
</g>
<!-- T&#45;&gt;R -->
<g id="edge25" class="edge">
<title>T&#45;&gt;R</title>
<path fill="none" stroke="black" d="M621.91,-72.72C635.96,-62.76 650.83,-52.21 663.64,-43.12"/>
<polygon fill="black" stroke="black" points="665.62,-46 671.75,-37.36 661.57,-40.29 665.62,-46"/>
</g>
<!-- V -->
<g id="node20" class="node">
<title>V</title>
<path fill="none" stroke="black" d="M813.86,-263.77C813.86,-263.77 695.39,-240.21 695.39,-240.21 689.51,-239.04 689.51,-236.69 695.39,-235.52 695.39,-235.52 813.86,-211.96 813.86,-211.96 819.74,-210.79 831.51,-210.79 837.39,-211.96 837.39,-211.96 955.86,-235.52 955.86,-235.52 961.74,-236.69 961.74,-239.04 955.86,-240.21 955.86,-240.21 837.39,-263.77 837.39,-263.77 831.51,-264.94 819.74,-264.94 813.86,-263.77"/>
<text xml:space="preserve" text-anchor="middle" x="825.62" y="-234.69" font-family="Helvetica,sans-Serif" font-size="14.00">图03 是否装箱成功?</text>
</g>
<!-- U&#45;&gt;V -->
<g id="edge21" class="edge">
<title>U&#45;&gt;V</title>
<path fill="none" stroke="black" d="M591.5,-754.04C624.35,-725.68 675.62,-671.88 675.62,-612.37 675.62,-612.37 675.62,-612.37 675.62,-355.74 675.62,-309.27 720.97,-278.57 761.79,-260.35"/>
<polygon fill="black" stroke="black" points="763.09,-263.6 770.93,-256.46 760.35,-257.16 763.09,-263.6"/>
</g>
<!-- V&#45;&gt;T -->
<g id="edge23" class="edge">
<title>V&#45;&gt;T</title>
<path fill="none" stroke="black" d="M785.78,-217.22C748.41,-198.79 691.55,-170.75 645.67,-148.13"/>
<polygon fill="black" stroke="black" points="647.34,-145.05 636.82,-143.76 644.25,-151.33 647.34,-145.05"/>
<text xml:space="preserve" text-anchor="middle" x="728.09" y="-172.19" font-family="Helvetica,sans-Serif" font-size="14.00">否</text>
</g>
<!-- W -->
<g id="node21" class="node">
<title>W</title>
<path fill="none" stroke="black" d="M928.5,-134.37C928.5,-134.37 722.75,-134.37 722.75,-134.37 716.75,-134.37 710.75,-128.37 710.75,-122.37 710.75,-122.37 710.75,-97.87 710.75,-97.87 710.75,-91.87 716.75,-85.87 722.75,-85.87 722.75,-85.87 928.5,-85.87 928.5,-85.87 934.5,-85.87 940.5,-91.87 940.5,-97.87 940.5,-97.87 940.5,-122.37 940.5,-122.37 940.5,-128.37 934.5,-134.37 928.5,-134.37"/>
<text xml:space="preserve" text-anchor="middle" x="825.62" y="-117.07" font-family="Helvetica,sans-Serif" font-size="14.00">成功:</text>
<text xml:space="preserve" text-anchor="middle" x="825.62" y="-96.82" font-family="Helvetica,sans-Serif" font-size="14.00">全部剩余商品已完成传统多箱装箱</text>
</g>
<!-- V&#45;&gt;W -->
<g id="edge22" class="edge">
<title>V&#45;&gt;W</title>
<path fill="none" stroke="black" d="M825.62,-209.27C825.62,-190.74 825.62,-166.17 825.62,-146.25"/>
<polygon fill="black" stroke="black" points="829.13,-146.36 825.63,-136.36 822.13,-146.36 829.13,-146.36"/>
<text xml:space="preserve" text-anchor="middle" x="832.75" y="-172.19" font-family="Helvetica,sans-Serif" font-size="14.00">是</text>
</g>
<!-- W&#45;&gt;R -->
<g id="edge24" class="edge">
<title>W&#45;&gt;R</title>
<path fill="none" stroke="black" d="M791.99,-85.44C773.32,-72.3 750.16,-55.99 731.46,-42.82"/>
<polygon fill="black" stroke="black" points="733.56,-40.02 723.37,-37.13 729.53,-45.75 733.56,-40.02"/>
</g>
</g>
</svg>
