<?xml version="1.0" encoding="UTF-8" standalone="no"?>
<!DOCTYPE svg PUBLIC "-//W3C//DTD SVG 1.1//EN"
 "http://www.w3.org/Graphics/SVG/1.1/DTD/svg11.dtd">
<!-- Generated by graphviz version 14.1.0 (0)
 -->
<!-- Title: LogisticShortcutFlow Pages: 1 -->
<svg width="352pt" height="660pt"
 viewBox="0.00 0.00 352.00 660.00" xmlns="http://www.w3.org/2000/svg" xmlns:xlink="http://www.w3.org/1999/xlink">
<g id="graph0" class="graph" transform="scale(1 1) rotate(0) translate(4 656.49)">
<title>LogisticShortcutFlow</title>
<polygon fill="white" stroke="none" points="-4,4 -4,-656.49 348.25,-656.49 348.25,4 -4,4"/>
<!-- A -->
<g id="node1" class="node">
<title>A</title>
<path fill="none" stroke="black" d="M190.5,-652.49C190.5,-652.49 84.5,-652.49 84.5,-652.49 78.5,-652.49 72.5,-646.49 72.5,-640.49 72.5,-640.49 72.5,-628.49 72.5,-628.49 72.5,-622.49 78.5,-616.49 84.5,-616.49 84.5,-616.49 190.5,-616.49 190.5,-616.49 196.5,-616.49 202.5,-622.49 202.5,-628.49 202.5,-628.49 202.5,-640.49 202.5,-640.49 202.5,-646.49 196.5,-652.49 190.5,-652.49"/>
<text xml:space="preserve" text-anchor="middle" x="137.5" y="-631.32" font-family="Helvetica,sans-Serif" font-size="14.00">进入物流快捷路径</text>
</g>
<!-- B -->
<g id="node2" class="node">
<title>B</title>
<path fill="none" stroke="black" d="M217.88,-579.49C217.88,-579.49 57.13,-579.49 57.13,-579.49 51.12,-579.49 45.12,-573.49 45.12,-567.49 45.12,-567.49 45.12,-555.49 45.12,-555.49 45.12,-549.49 51.12,-543.49 57.12,-543.49 57.12,-543.49 217.88,-543.49 217.88,-543.49 223.88,-543.49 229.88,-549.49 229.88,-555.49 229.88,-555.49 229.88,-567.49 229.88,-567.49 229.88,-573.49 223.88,-579.49 217.88,-579.49"/>
<text xml:space="preserve" text-anchor="middle" x="137.5" y="-558.32" font-family="Helvetica,sans-Serif" font-size="14.00">读取首条 orderDetail.stores</text>
</g>
<!-- A&#45;&gt;B -->
<g id="edge1" class="edge">
<title>A&#45;&gt;B</title>
<path fill="none" stroke="black" d="M137.5,-616.3C137.5,-608.72 137.5,-599.59 137.5,-591.03"/>
<polygon fill="black" stroke="black" points="141,-591.03 137.5,-581.03 134,-591.03 141,-591.03"/>
</g>
<!-- C -->
<g id="node3" class="node">
<title>C</title>
<path fill="none" stroke="black" d="M246.75,-506.49C246.75,-506.49 28.25,-506.49 28.25,-506.49 22.25,-506.49 16.25,-500.49 16.25,-494.49 16.25,-494.49 16.25,-454.99 16.25,-454.99 16.25,-448.99 22.25,-442.99 28.25,-442.99 28.25,-442.99 246.75,-442.99 246.75,-442.99 252.75,-442.99 258.75,-448.99 258.75,-454.99 258.75,-454.99 258.75,-494.49 258.75,-494.49 258.75,-500.49 252.75,-506.49 246.75,-506.49"/>
<text xml:space="preserve" text-anchor="middle" x="137.5" y="-489.19" font-family="Helvetica,sans-Serif" font-size="14.00">过滤可用箱型:</text>
<text xml:space="preserve" text-anchor="middle" x="137.5" y="-468.94" font-family="Helvetica,sans-Serif" font-size="14.00">container.stores == orderDetail.stores</text>
<text xml:space="preserve" text-anchor="middle" x="137.5" y="-453.94" font-family="Helvetica,sans-Serif" font-size="14.00">或任一为 None</text>
</g>
<!-- B&#45;&gt;C -->
<g id="edge2" class="edge">
<title>B&#45;&gt;C</title>
<path fill="none" stroke="black" d="M137.5,-543.34C137.5,-536.08 137.5,-527.26 137.5,-518.42"/>
<polygon fill="black" stroke="black" points="141,-518.44 137.5,-508.44 134,-518.44 141,-518.44"/>
</g>
<!-- D -->
<g id="node4" class="node">
<title>D</title>
<path fill="none" stroke="black" d="M125.75,-403.58C125.75,-403.58 11.75,-380.16 11.75,-380.16 5.88,-378.95 5.88,-376.53 11.75,-375.33 11.75,-375.33 125.75,-351.91 125.75,-351.91 131.62,-350.7 143.38,-350.7 149.25,-351.91 149.25,-351.91 263.25,-375.33 263.25,-375.33 269.12,-376.53 269.12,-378.95 263.25,-380.16 263.25,-380.16 149.25,-403.58 149.25,-403.58 143.38,-404.78 131.62,-404.78 125.75,-403.58"/>
<text xml:space="preserve" text-anchor="middle" x="137.5" y="-374.57" font-family="Helvetica,sans-Serif" font-size="14.00">是否存在可用箱型?</text>
</g>
<!-- C&#45;&gt;D -->
<g id="edge3" class="edge">
<title>C&#45;&gt;D</title>
<path fill="none" stroke="black" d="M137.5,-442.63C137.5,-434.69 137.5,-426.05 137.5,-417.76"/>
<polygon fill="black" stroke="black" points="141,-417.91 137.5,-407.91 134,-417.91 141,-417.91"/>
</g>
<!-- E -->
<g id="node5" class="node">
<title>E</title>
<path fill="none" stroke="black" d="M154.28,-251C154.28,-251 154.28,-261.25 154.28,-261.25 154.28,-266.37 149.8,-273.99 145.32,-276.48 145.32,-276.48 124.12,-288.26 124.12,-288.26 119.64,-290.75 110.04,-293.24 104.91,-293.24 104.91,-293.24 70.09,-293.24 70.09,-293.24 64.96,-293.24 55.36,-290.75 50.88,-288.26 50.88,-288.26 29.68,-276.48 29.68,-276.48 25.2,-273.99 20.72,-266.37 20.72,-261.25 20.72,-261.25 20.72,-251 20.72,-251 20.72,-245.87 25.2,-238.25 29.68,-235.76 29.68,-235.76 50.88,-223.98 50.88,-223.98 55.36,-221.49 64.96,-219 70.09,-219 70.09,-219 104.91,-219 104.91,-219 110.04,-219 119.64,-221.49 124.12,-223.98 124.12,-223.98 145.32,-235.76 145.32,-235.76 149.8,-238.25 154.28,-245.87 154.28,-251"/>
<text xml:space="preserve" text-anchor="middle" x="87.5" y="-263.07" font-family="Helvetica,sans-Serif" font-size="14.00">返回失败:</text>
<text xml:space="preserve" text-anchor="middle" x="87.5" y="-242.82" font-family="Helvetica,sans-Serif" font-size="14.00">无可用箱型</text>
</g>
<!-- D&#45;&gt;E -->
<g id="edge4" class="edge">
<title>D&#45;&gt;E</title>
<path fill="none" stroke="black" d="M126.9,-351.37C121.11,-337.53 113.77,-319.96 106.99,-303.75"/>
<polygon fill="black" stroke="black" points="110.31,-302.62 103.23,-294.74 103.85,-305.32 110.31,-302.62"/>
<text xml:space="preserve" text-anchor="middle" x="125.57" y="-318.19" font-family="Helvetica,sans-Serif" font-size="14.00">否</text>
</g>
<!-- F -->
<g id="node6" class="node">
<title>F</title>
<path fill="none" stroke="black" d="M318.75,-274.12C318.75,-274.12 184.25,-274.12 184.25,-274.12 178.25,-274.12 172.25,-268.12 172.25,-262.12 172.25,-262.12 172.25,-250.12 172.25,-250.12 172.25,-244.12 178.25,-238.12 184.25,-238.12 184.25,-238.12 318.75,-238.12 318.75,-238.12 324.75,-238.12 330.75,-244.12 330.75,-250.12 330.75,-250.12 330.75,-262.12 330.75,-262.12 330.75,-268.12 324.75,-274.12 318.75,-274.12"/>
<text xml:space="preserve" text-anchor="middle" x="251.5" y="-252.95" font-family="Helvetica,sans-Serif" font-size="14.00">按体积升序排序候选箱</text>
</g>
<!-- D&#45;&gt;F -->
<g id="edge5" class="edge">
<title>D&#45;&gt;F</title>
<path fill="none" stroke="black" d="M159.48,-353.68C178.93,-333.27 207.26,-303.54 227.34,-282.48"/>
<polygon fill="black" stroke="black" points="229.71,-285.06 234.08,-275.4 224.64,-280.23 229.71,-285.06"/>
<text xml:space="preserve" text-anchor="middle" x="205.04" y="-318.19" font-family="Helvetica,sans-Serif" font-size="14.00">是</text>
</g>
<!-- G -->
<g id="node7" class="node">
<title>G</title>
<path fill="none" stroke="black" d="M304.5,-182C304.5,-182 198.5,-182 198.5,-182 192.5,-182 186.5,-176 186.5,-170 186.5,-170 186.5,-158 186.5,-158 186.5,-152 192.5,-146 198.5,-146 198.5,-146 304.5,-146 304.5,-146 310.5,-146 316.5,-152 316.5,-158 316.5,-158 316.5,-170 316.5,-170 316.5,-176 310.5,-182 304.5,-182"/>
<text xml:space="preserve" text-anchor="middle" x="251.5" y="-160.82" font-family="Helvetica,sans-Serif" font-size="14.00">取体积最小的箱型</text>
</g>
<!-- F&#45;&gt;G -->
<g id="edge6" class="edge">
<title>F&#45;&gt;G</title>
<path fill="none" stroke="black" d="M251.5,-237.74C251.5,-225.28 251.5,-208.19 251.5,-193.71"/>
<polygon fill="black" stroke="black" points="255,-193.84 251.5,-183.84 248,-193.84 255,-193.84"/>
</g>
<!-- H -->
<g id="node8" class="node">
<title>H</title>
<path fill="none" stroke="black" d="M290.25,-109C290.25,-109 212.75,-109 212.75,-109 206.75,-109 200.75,-103 200.75,-97 200.75,-97 200.75,-85 200.75,-85 200.75,-79 206.75,-73 212.75,-73 212.75,-73 290.25,-73 290.25,-73 296.25,-73 302.25,-79 302.25,-85 302.25,-85 302.25,-97 302.25,-97 302.25,-103 296.25,-109 290.25,-109"/>
<text xml:space="preserve" text-anchor="middle" x="251.5" y="-87.83" font-family="Helvetica,sans-Serif" font-size="14.00">生成单箱结果</text>
</g>
<!-- G&#45;&gt;H -->
<g id="edge7" class="edge">
<title>G&#45;&gt;H</title>
<path fill="none" stroke="black" d="M251.5,-145.81C251.5,-138.23 251.5,-129.1 251.5,-120.54"/>
<polygon fill="black" stroke="black" points="255,-120.54 251.5,-110.54 248,-120.54 255,-120.54"/>
</g>
<!-- I -->
<g id="node9" class="node">
<title>I</title>
<path fill="none" stroke="black" d="M332.25,-36C332.25,-36 170.75,-36 170.75,-36 164.75,-36 158.75,-30 158.75,-24 158.75,-24 158.75,-12 158.75,-12 158.75,-6 164.75,0 170.75,0 170.75,0 332.25,0 332.25,0 338.25,0 344.25,-6 344.25,-12 344.25,-12 344.25,-24 344.25,-24 344.25,-30 338.25,-36 332.25,-36"/>
<text xml:space="preserve" text-anchor="middle" x="251.5" y="-14.82" font-family="Helvetica,sans-Serif" font-size="14.00">进入装箱结果 Response 化</text>
</g>
<!-- H&#45;&gt;I -->
<g id="edge8" class="edge">
<title>H&#45;&gt;I</title>
<path fill="none" stroke="black" d="M251.5,-72.81C251.5,-65.23 251.5,-56.1 251.5,-47.54"/>
<polygon fill="black" stroke="black" points="255,-47.54 251.5,-37.54 248,-47.54 255,-47.54"/>
</g>
</g>
</svg>
