<?xml version="1.0" encoding="UTF-8" standalone="no"?>
<!DOCTYPE svg PUBLIC "-//W3C//DTD SVG 1.1//EN"
 "http://www.w3.org/Graphics/SVG/1.1/DTD/svg11.dtd">
<!-- Generated by graphviz version 14.1.0 (0)
 -->
<!-- Title: NormalPackingFlow Pages: 1 -->
<svg width="879pt" height="1439pt"
 viewBox="0.00 0.00 879.00 1439.00" xmlns="http://www.w3.org/2000/svg" xmlns:xlink="http://www.w3.org/1999/xlink">
<g id="graph0" class="graph" transform="scale(1 1) rotate(0) translate(4 1435.49)">
<title>NormalPackingFlow</title>
<polygon fill="white" stroke="none" points="-4,4 -4,-1435.49 874.73,-1435.49 874.73,4 -4,4"/>
<!-- A -->
<g id="node1" class="node">
<title>A</title>
<path fill="none" stroke="black" d="M779.73,-1431.49C779.73,-1431.49 586.73,-1431.49 586.73,-1431.49 580.73,-1431.49 574.73,-1425.49 574.73,-1419.49 574.73,-1419.49 574.73,-1374.74 574.73,-1374.74 574.73,-1368.74 580.73,-1362.74 586.73,-1362.74 586.73,-1362.74 779.73,-1362.74 779.73,-1362.74 785.73,-1362.74 791.73,-1368.74 791.73,-1374.74 791.73,-1374.74 791.73,-1419.49 791.73,-1419.49 791.73,-1425.49 785.73,-1431.49 779.73,-1431.49"/>
<text xml:space="preserve" text-anchor="middle" x="683.23" y="-1414.19" font-family="Helvetica,sans-Serif" font-size="14.00">输入:</text>
<text xml:space="preserve" text-anchor="middle" x="683.23" y="-1393.94" font-family="Helvetica,sans-Serif" font-size="14.00">全部剩余商品</text>
<text xml:space="preserve" text-anchor="middle" x="683.23" y="-1373.69" font-family="Helvetica,sans-Serif" font-size="14.00">已预处理商品集合 + 候选箱集合</text>
</g>
<!-- B -->
<g id="node2" class="node">
<title>B</title>
<path fill="none" stroke="black" d="M775.23,-1325.74C775.23,-1325.74 591.23,-1325.74 591.23,-1325.74 585.23,-1325.74 579.23,-1319.74 579.23,-1313.74 579.23,-1313.74 579.23,-1274.24 579.23,-1274.24 579.23,-1268.24 585.23,-1262.24 591.23,-1262.24 591.23,-1262.24 775.23,-1262.24 775.23,-1262.24 781.23,-1262.24 787.23,-1268.24 787.23,-1274.24 787.23,-1274.24 787.23,-1313.74 787.23,-1313.74 787.23,-1319.74 781.23,-1325.74 775.23,-1325.74"/>
<text xml:space="preserve" text-anchor="middle" x="683.23" y="-1308.44" font-family="Helvetica,sans-Serif" font-size="14.00">按 stores 过滤候选箱:</text>
<text xml:space="preserve" text-anchor="middle" x="683.23" y="-1288.19" font-family="Helvetica,sans-Serif" font-size="14.00">container.stores == order.stores</text>
<text xml:space="preserve" text-anchor="middle" x="683.23" y="-1273.19" font-family="Helvetica,sans-Serif" font-size="14.00">或任一为 null</text>
</g>
<!-- A&#45;&gt;B -->
<g id="edge1" class="edge">
<title>A&#45;&gt;B</title>
<path fill="none" stroke="black" d="M683.23,-1362.44C683.23,-1354.48 683.23,-1345.88 683.23,-1337.57"/>
<polygon fill="black" stroke="black" points="686.73,-1337.64 683.23,-1327.64 679.73,-1337.64 686.73,-1337.64"/>
</g>
<!-- C -->
<g id="node3" class="node">
<title>C</title>
<path fill="none" stroke="black" d="M799.61,-1225.24C799.61,-1225.24 566.86,-1225.24 566.86,-1225.24 560.86,-1225.24 554.86,-1219.24 554.86,-1213.24 554.86,-1213.24 554.86,-1201.24 554.86,-1201.24 554.86,-1195.24 560.86,-1189.24 566.86,-1189.24 566.86,-1189.24 799.61,-1189.24 799.61,-1189.24 805.61,-1189.24 811.61,-1195.24 811.61,-1201.24 811.61,-1201.24 811.61,-1213.24 811.61,-1213.24 811.61,-1219.24 805.61,-1225.24 799.61,-1225.24"/>
<text xml:space="preserve" text-anchor="middle" x="683.23" y="-1204.07" font-family="Helvetica,sans-Serif" font-size="14.00">按 (sequence, volume) 升序排序候选箱</text>
</g>
<!-- B&#45;&gt;C -->
<g id="edge2" class="edge">
<title>B&#45;&gt;C</title>
<path fill="none" stroke="black" d="M683.23,-1261.91C683.23,-1253.76 683.23,-1245 683.23,-1236.97"/>
<polygon fill="black" stroke="black" points="686.73,-1237.04 683.23,-1227.04 679.73,-1237.04 686.73,-1237.04"/>
</g>
<!-- D -->
<g id="node4" class="node">
<title>D</title>
<path fill="none" stroke="black" d="M752.36,-1152.24C752.36,-1152.24 614.11,-1152.24 614.11,-1152.24 608.11,-1152.24 602.11,-1146.24 602.11,-1140.24 602.11,-1140.24 602.11,-1115.74 602.11,-1115.74 602.11,-1109.74 608.11,-1103.74 614.11,-1103.74 614.11,-1103.74 752.36,-1103.74 752.36,-1103.74 758.36,-1103.74 764.36,-1109.74 764.36,-1115.74 764.36,-1115.74 764.36,-1140.24 764.36,-1140.24 764.36,-1146.24 758.36,-1152.24 752.36,-1152.24"/>
<text xml:space="preserve" text-anchor="middle" x="683.23" y="-1134.94" font-family="Helvetica,sans-Serif" font-size="14.00">选择当前待装商品集合:</text>
<text xml:space="preserve" text-anchor="middle" x="683.23" y="-1114.69" font-family="Helvetica,sans-Serif" font-size="14.00">初始 = 全部剩余商品</text>
</g>
<!-- C&#45;&gt;D -->
<g id="edge3" class="edge">
<title>C&#45;&gt;D</title>
<path fill="none" stroke="black" d="M683.23,-1189.1C683.23,-1181.62 683.23,-1172.56 683.23,-1163.77"/>
<polygon fill="black" stroke="black" points="686.73,-1164.05 683.23,-1154.05 679.73,-1164.05 686.73,-1164.05"/>
</g>
<!-- E -->
<g id="node5" class="node">
<title>E</title>
<path fill="none" stroke="black" d="M610.98,-1066.74C610.98,-1066.74 533.48,-1066.74 533.48,-1066.74 527.48,-1066.74 521.48,-1060.74 521.48,-1054.74 521.48,-1054.74 521.48,-1042.74 521.48,-1042.74 521.48,-1036.74 527.48,-1030.74 533.48,-1030.74 533.48,-1030.74 610.98,-1030.74 610.98,-1030.74 616.98,-1030.74 622.98,-1036.74 622.98,-1042.74 622.98,-1042.74 622.98,-1054.74 622.98,-1054.74 622.98,-1060.74 616.98,-1066.74 610.98,-1066.74"/>
<text xml:space="preserve" text-anchor="middle" x="572.23" y="-1045.57" font-family="Helvetica,sans-Serif" font-size="14.00">取当前候选箱</text>
</g>
<!-- D&#45;&gt;E -->
<g id="edge4" class="edge">
<title>D&#45;&gt;E</title>
<path fill="none" stroke="black" d="M649.33,-1103.39C635.65,-1093.88 619.9,-1082.92 606.22,-1073.39"/>
<polygon fill="black" stroke="black" points="608.57,-1070.77 598.37,-1067.93 604.58,-1076.51 608.57,-1070.77"/>
</g>
<!-- F -->
<g id="node6" class="node">
<title>F</title>
<path fill="none" stroke="black" d="M560.42,-963.49C560.42,-963.49 427.79,-939.51 427.79,-939.51 421.89,-938.44 421.89,-936.3 427.79,-935.24 427.79,-935.24 560.42,-911.26 560.42,-911.26 566.33,-910.19 578.14,-910.19 584.04,-911.26 584.04,-911.26 716.67,-935.24 716.67,-935.24 722.58,-936.3 722.58,-938.44 716.67,-939.51 716.67,-939.51 584.04,-963.49 584.04,-963.49 578.14,-964.55 566.33,-964.55 560.42,-963.49"/>
<text xml:space="preserve" text-anchor="middle" x="572.23" y="-934.2" font-family="Helvetica,sans-Serif" font-size="14.00">箱型库存 quantity &gt; 0?</text>
</g>
<!-- E&#45;&gt;F -->
<g id="edge5" class="edge">
<title>E&#45;&gt;F</title>
<path fill="none" stroke="black" d="M572.23,-1030.65C572.23,-1016.39 572.23,-995.52 572.23,-977.23"/>
<polygon fill="black" stroke="black" points="575.73,-977.48 572.23,-967.48 568.73,-977.48 575.73,-977.48"/>
</g>
<!-- S -->
<g id="node19" class="node">
<title>S</title>
<path fill="none" stroke="black" d="M397.98,-932.25C397.98,-932.25 397.98,-942.5 397.98,-942.5 397.98,-947.62 392.95,-953.75 387.93,-954.74 387.93,-954.74 298.64,-972.49 298.64,-972.49 293.61,-973.49 283.46,-974.49 278.34,-974.49 278.34,-974.49 144.13,-974.49 144.13,-974.49 139,-974.49 128.85,-973.49 123.82,-972.49 123.82,-972.49 34.54,-954.74 34.54,-954.74 29.51,-953.75 24.48,-947.62 24.48,-942.5 24.48,-942.5 24.48,-932.25 24.48,-932.25 24.48,-927.12 29.51,-921 34.54,-920 34.54,-920 123.82,-902.25 123.82,-902.25 128.85,-901.25 139,-900.25 144.13,-900.25 144.13,-900.25 278.34,-900.25 278.34,-900.25 283.46,-900.25 293.61,-901.25 298.64,-902.25 298.64,-902.25 387.93,-920 387.93,-920 392.95,-921 397.98,-927.12 397.98,-932.25"/>
<text xml:space="preserve" text-anchor="middle" x="211.23" y="-944.32" font-family="Helvetica,sans-Serif" font-size="14.00">返回失败:</text>
<text xml:space="preserve" text-anchor="middle" x="211.23" y="-924.07" font-family="Helvetica,sans-Serif" font-size="14.00">当前剩余商品无法命中任何合法箱型</text>
</g>
<!-- E&#45;&gt;S -->
<g id="edge22" class="edge">
<title>E&#45;&gt;S</title>
<path fill="none" stroke="black" d="M521.28,-1032.3C470.65,-1016.96 391.28,-992.92 325.52,-973"/>
<polygon fill="black" stroke="black" points="326.7,-969.7 316.12,-970.15 324.67,-976.4 326.7,-969.7"/>
<text xml:space="preserve" text-anchor="middle" x="491.09" y="-999.44" font-family="Helvetica,sans-Serif" font-size="14.00">候选箱耗尽</text>
</g>
<!-- G -->
<g id="node7" class="node">
<title>G</title>
<path fill="none" stroke="black" d="M236.86,-837.75C236.86,-837.75 173.61,-837.75 173.61,-837.75 167.61,-837.75 161.61,-831.75 161.61,-825.75 161.61,-825.75 161.61,-813.75 161.61,-813.75 161.61,-807.75 167.61,-801.75 173.61,-801.75 173.61,-801.75 236.86,-801.75 236.86,-801.75 242.86,-801.75 248.86,-807.75 248.86,-813.75 248.86,-813.75 248.86,-825.75 248.86,-825.75 248.86,-831.75 242.86,-837.75 236.86,-837.75"/>
<text xml:space="preserve" text-anchor="middle" x="205.23" y="-816.58" font-family="Helvetica,sans-Serif" font-size="14.00">跳过该箱型</text>
</g>
<!-- F&#45;&gt;G -->
<g id="edge6" class="edge">
<title>F&#45;&gt;G</title>
<path fill="none" stroke="black" d="M516.49,-918.81C446.92,-896.89 328.72,-859.65 259.73,-837.92"/>
<polygon fill="black" stroke="black" points="261.13,-834.69 250.54,-835.02 259.03,-841.37 261.13,-834.69"/>
<text xml:space="preserve" text-anchor="middle" x="406.86" y="-868.95" font-family="Helvetica,sans-Serif" font-size="14.00">否</text>
</g>
<!-- H -->
<g id="node8" class="node">
<title>H</title>
<path fill="none" stroke="black" d="M631.61,-844C631.61,-844 482.86,-844 482.86,-844 476.86,-844 470.86,-838 470.86,-832 470.86,-832 470.86,-807.5 470.86,-807.5 470.86,-801.5 476.86,-795.5 482.86,-795.5 482.86,-795.5 631.61,-795.5 631.61,-795.5 637.61,-795.5 643.61,-801.5 643.61,-807.5 643.61,-807.5 643.61,-832 643.61,-832 643.61,-838 637.61,-844 631.61,-844"/>
<text xml:space="preserve" text-anchor="middle" x="557.23" y="-826.7" font-family="Helvetica,sans-Serif" font-size="14.00">调用核心装箱算法:</text>
<text xml:space="preserve" text-anchor="middle" x="557.23" y="-806.45" font-family="Helvetica,sans-Serif" font-size="14.00">以当前待装商品集合求解</text>
</g>
<!-- F&#45;&gt;H -->
<g id="edge8" class="edge">
<title>F&#45;&gt;H</title>
<path fill="none" stroke="black" d="M568.72,-909.26C566.63,-893.21 563.97,-872.71 561.74,-855.48"/>
<polygon fill="black" stroke="black" points="565.22,-855.14 560.47,-845.67 558.28,-856.04 565.22,-855.14"/>
<text xml:space="preserve" text-anchor="middle" x="572.31" y="-868.95" font-family="Helvetica,sans-Serif" font-size="14.00">是</text>
</g>
<!-- G&#45;&gt;E -->
<g id="edge7" class="edge">
<title>G&#45;&gt;E</title>
<path fill="none" stroke="black" d="M161.43,-825.33C116.14,-832.65 47.63,-851.58 15.23,-900.25 -3.05,-927.72 -6.53,-949.68 15.23,-974.49 47.49,-1011.27 371.23,-1035.39 509.82,-1044.1"/>
<polygon fill="black" stroke="black" points="509.35,-1047.58 519.55,-1044.71 509.78,-1040.59 509.35,-1047.58"/>
</g>
<!-- I -->
<g id="node9" class="node">
<title>I</title>
<path fill="none" stroke="black" d="M521.36,-756.78C521.36,-756.78 350.61,-731.97 350.61,-731.97 344.67,-731.11 344.67,-729.39 350.61,-728.53 350.61,-728.53 521.36,-703.72 521.36,-703.72 527.29,-702.86 539.17,-702.86 545.11,-703.72 545.11,-703.72 715.86,-728.53 715.86,-728.53 721.79,-729.39 721.79,-731.11 715.86,-731.97 715.86,-731.97 545.11,-756.78 545.11,-756.78 539.17,-757.64 527.29,-757.64 521.36,-756.78"/>
<text xml:space="preserve" text-anchor="middle" x="533.23" y="-727.08" font-family="Helvetica,sans-Serif" font-size="14.00">是否全部装下当前待装商品?</text>
</g>
<!-- H&#45;&gt;I -->
<g id="edge9" class="edge">
<title>H&#45;&gt;I</title>
<path fill="none" stroke="black" d="M550.8,-795.3C548.57,-787.19 546.02,-777.87 543.56,-768.91"/>
<polygon fill="black" stroke="black" points="546.95,-768.03 540.93,-759.32 540.2,-769.88 546.95,-768.03"/>
</g>
<!-- J -->
<g id="node10" class="node">
<title>J</title>
<path fill="none" stroke="black" d="M591.11,-367.75C591.11,-367.75 499.36,-367.75 499.36,-367.75 493.36,-367.75 487.36,-361.75 487.36,-355.75 487.36,-355.75 487.36,-343.75 487.36,-343.75 487.36,-337.75 493.36,-331.75 499.36,-331.75 499.36,-331.75 591.11,-331.75 591.11,-331.75 597.11,-331.75 603.11,-337.75 603.11,-343.75 603.11,-343.75 603.11,-355.75 603.11,-355.75 603.11,-361.75 597.11,-367.75 591.11,-367.75"/>
<text xml:space="preserve" text-anchor="middle" x="545.23" y="-346.57" font-family="Helvetica,sans-Serif" font-size="14.00">尝试下一候选箱</text>
</g>
<!-- I&#45;&gt;J -->
<g id="edge10" class="edge">
<title>I&#45;&gt;J</title>
<path fill="none" stroke="black" d="M523.06,-703.24C516.14,-683.2 508.23,-654.64 508.23,-628.75 508.23,-628.75 508.23,-628.75 508.23,-451.25 508.23,-425.37 519.17,-397.91 529.16,-378.25"/>
<polygon fill="black" stroke="black" points="532.19,-379.99 533.82,-369.52 526.02,-376.7 532.19,-379.99"/>
<text xml:space="preserve" text-anchor="middle" x="515.36" y="-532.33" font-family="Helvetica,sans-Serif" font-size="14.00">否</text>
</g>
<!-- K -->
<g id="node11" class="node">
<title>K</title>
<path fill="none" stroke="black" d="M675.36,-645.75C675.36,-645.75 555.11,-645.75 555.11,-645.75 549.11,-645.75 543.11,-639.75 543.11,-633.75 543.11,-633.75 543.11,-621.75 543.11,-621.75 543.11,-615.75 549.11,-609.75 555.11,-609.75 555.11,-609.75 675.36,-609.75 675.36,-609.75 681.36,-609.75 687.36,-615.75 687.36,-621.75 687.36,-621.75 687.36,-633.75 687.36,-633.75 687.36,-639.75 681.36,-645.75 675.36,-645.75"/>
<text xml:space="preserve" text-anchor="middle" x="615.23" y="-624.58" font-family="Helvetica,sans-Serif" font-size="14.00">得到一个箱子的装法</text>
</g>
<!-- I&#45;&gt;K -->
<g id="edge12" class="edge">
<title>I&#45;&gt;K</title>
<path fill="none" stroke="black" d="M553.29,-704.66C565.66,-689.51 581.5,-670.09 594.06,-654.69"/>
<polygon fill="black" stroke="black" points="596.47,-657.29 600.08,-647.32 591.04,-652.86 596.47,-657.29"/>
<text xml:space="preserve" text-anchor="middle" x="593.49" y="-670.7" font-family="Helvetica,sans-Serif" font-size="14.00">是</text>
</g>
<!-- J&#45;&gt;E -->
<g id="edge11" class="edge">
<title>J&#45;&gt;E</title>
<path fill="none" stroke="black" d="M603.43,-365.6C637.15,-374.3 673.67,-383.93 677.23,-385.75 701.23,-397.97 703.53,-406.77 724.23,-424 738.59,-435.95 756.23,-432.57 756.23,-451.25 756.23,-938.37 756.23,-938.37 756.23,-938.37 756.23,-996.48 687.58,-1024.41 634.14,-1037.34"/>
<polygon fill="black" stroke="black" points="633.45,-1033.91 624.47,-1039.55 635,-1040.74 633.45,-1033.91"/>
</g>
<!-- L -->
<g id="node12" class="node">
<title>L</title>
<path fill="none" stroke="black" d="M715.73,-553.5C715.73,-553.5 552.73,-553.5 552.73,-553.5 546.73,-553.5 540.73,-547.5 540.73,-541.5 540.73,-541.5 540.73,-529.5 540.73,-529.5 540.73,-523.5 546.73,-517.5 552.73,-517.5 552.73,-517.5 715.73,-517.5 715.73,-517.5 721.73,-517.5 727.73,-523.5 727.73,-529.5 727.73,-529.5 727.73,-541.5 727.73,-541.5 727.73,-547.5 721.73,-553.5 715.73,-553.5"/>
<text xml:space="preserve" text-anchor="middle" x="634.23" y="-532.33" font-family="Helvetica,sans-Serif" font-size="14.00">执行装后运行时合法性校验</text>
</g>
<!-- K&#45;&gt;L -->
<g id="edge13" class="edge">
<title>K&#45;&gt;L</title>
<path fill="none" stroke="black" d="M618.9,-609.35C621.55,-596.74 625.2,-579.41 628.27,-564.82"/>
<polygon fill="black" stroke="black" points="631.63,-565.84 630.27,-555.33 624.78,-564.39 631.63,-565.84"/>
</g>
<!-- M -->
<g id="node13" class="node">
<title>M</title>
<path fill="none" stroke="black" d="M622.91,-476.53C622.91,-476.53 565.06,-456.22 565.06,-456.22 559.39,-454.24 559.39,-450.26 565.06,-448.28 565.06,-448.28 622.91,-427.97 622.91,-427.97 628.57,-425.99 639.89,-425.99 645.56,-427.97 645.56,-427.97 703.41,-448.28 703.41,-448.28 709.07,-450.26 709.07,-454.24 703.41,-456.22 703.41,-456.22 645.56,-476.53 645.56,-476.53 639.89,-478.51 628.57,-478.51 622.91,-476.53"/>
<text xml:space="preserve" text-anchor="middle" x="634.23" y="-449.07" font-family="Helvetica,sans-Serif" font-size="14.00">校验通过?</text>
</g>
<!-- L&#45;&gt;M -->
<g id="edge14" class="edge">
<title>L&#45;&gt;M</title>
<path fill="none" stroke="black" d="M634.23,-517.27C634.23,-509.95 634.23,-501.09 634.23,-492.33"/>
<polygon fill="black" stroke="black" points="637.73,-492.52 634.23,-482.52 630.73,-492.52 637.73,-492.52"/>
</g>
<!-- M&#45;&gt;J -->
<g id="edge15" class="edge">
<title>M&#45;&gt;J</title>
<path fill="none" stroke="black" d="M615.79,-430.43C601.92,-414.76 582.82,-393.2 568,-376.46"/>
<polygon fill="black" stroke="black" points="570.94,-374.5 561.69,-369.33 565.7,-379.14 570.94,-374.5"/>
<text xml:space="preserve" text-anchor="middle" x="599.53" y="-392.7" font-family="Helvetica,sans-Serif" font-size="14.00">否</text>
</g>
<!-- N -->
<g id="node14" class="node">
<title>N</title>
<path fill="none" stroke="black" d="M710.98,-367.75C710.98,-367.75 633.48,-367.75 633.48,-367.75 627.48,-367.75 621.48,-361.75 621.48,-355.75 621.48,-355.75 621.48,-343.75 621.48,-343.75 621.48,-337.75 627.48,-331.75 633.48,-331.75 633.48,-331.75 710.98,-331.75 710.98,-331.75 716.98,-331.75 722.98,-337.75 722.98,-343.75 722.98,-343.75 722.98,-355.75 722.98,-355.75 722.98,-361.75 716.98,-367.75 710.98,-367.75"/>
<text xml:space="preserve" text-anchor="middle" x="672.23" y="-346.57" font-family="Helvetica,sans-Serif" font-size="14.00">锁定该箱装法</text>
</g>
<!-- M&#45;&gt;N -->
<g id="edge16" class="edge">
<title>M&#45;&gt;N</title>
<path fill="none" stroke="black" d="M643.43,-426.92C648.95,-412.34 655.98,-393.74 661.71,-378.57"/>
<polygon fill="black" stroke="black" points="664.82,-380.25 665.08,-369.66 658.27,-377.77 664.82,-380.25"/>
<text xml:space="preserve" text-anchor="middle" x="665.98" y="-392.7" font-family="Helvetica,sans-Serif" font-size="14.00">是</text>
</g>
<!-- O -->
<g id="node15" class="node">
<title>O</title>
<path fill="none" stroke="black" d="M730.11,-294.75C730.11,-294.75 614.36,-294.75 614.36,-294.75 608.36,-294.75 602.36,-288.75 602.36,-282.75 602.36,-282.75 602.36,-270.75 602.36,-270.75 602.36,-264.75 608.36,-258.75 614.36,-258.75 614.36,-258.75 730.11,-258.75 730.11,-258.75 736.11,-258.75 742.11,-264.75 742.11,-270.75 742.11,-270.75 742.11,-282.75 742.11,-282.75 742.11,-288.75 736.11,-294.75 730.11,-294.75"/>
<text xml:space="preserve" text-anchor="middle" x="672.23" y="-273.57" font-family="Helvetica,sans-Serif" font-size="14.00">扣减该箱型 quantity</text>
</g>
<!-- N&#45;&gt;O -->
<g id="edge17" class="edge">
<title>N&#45;&gt;O</title>
<path fill="none" stroke="black" d="M672.23,-331.56C672.23,-323.98 672.23,-314.85 672.23,-306.29"/>
<polygon fill="black" stroke="black" points="675.73,-306.29 672.23,-296.29 668.73,-306.29 675.73,-306.29"/>
</g>
<!-- P -->
<g id="node16" class="node">
<title>P</title>
<path fill="none" stroke="black" d="M753.73,-221.75C753.73,-221.75 590.73,-221.75 590.73,-221.75 584.73,-221.75 578.73,-215.75 578.73,-209.75 578.73,-209.75 578.73,-197.75 578.73,-197.75 578.73,-191.75 584.73,-185.75 590.73,-185.75 590.73,-185.75 753.73,-185.75 753.73,-185.75 759.73,-185.75 765.73,-191.75 765.73,-197.75 765.73,-197.75 765.73,-209.75 765.73,-209.75 765.73,-215.75 759.73,-221.75 753.73,-221.75"/>
<text xml:space="preserve" text-anchor="middle" x="672.23" y="-200.57" font-family="Helvetica,sans-Serif" font-size="14.00">从剩余商品中删除已装商品</text>
</g>
<!-- O&#45;&gt;P -->
<g id="edge18" class="edge">
<title>O&#45;&gt;P</title>
<path fill="none" stroke="black" d="M672.23,-258.56C672.23,-250.98 672.23,-241.85 672.23,-233.29"/>
<polygon fill="black" stroke="black" points="675.73,-233.29 672.23,-223.29 668.73,-233.29 675.73,-233.29"/>
</g>
<!-- Q -->
<g id="node17" class="node">
<title>Q</title>
<path fill="none" stroke="black" d="M721.48,-146.33C721.48,-146.33 607.49,-122.92 607.49,-122.92 601.61,-121.71 601.61,-119.29 607.49,-118.08 607.49,-118.08 721.48,-94.67 721.48,-94.67 727.35,-93.46 739.11,-93.46 744.99,-94.67 744.99,-94.67 858.98,-118.08 858.98,-118.08 864.85,-119.29 864.85,-121.71 858.98,-122.92 858.98,-122.92 744.99,-146.33 744.99,-146.33 739.11,-147.54 727.35,-147.54 721.48,-146.33"/>
<text xml:space="preserve" text-anchor="middle" x="733.23" y="-117.33" font-family="Helvetica,sans-Serif" font-size="14.00">是否还有剩余商品?</text>
</g>
<!-- P&#45;&gt;Q -->
<g id="edge19" class="edge">
<title>P&#45;&gt;Q</title>
<path fill="none" stroke="black" d="M685.17,-185.52C691.93,-176.51 700.44,-165.18 708.41,-154.56"/>
<polygon fill="black" stroke="black" points="711.11,-156.8 714.32,-146.7 705.51,-152.59 711.11,-156.8"/>
</g>
<!-- Q&#45;&gt;D -->
<g id="edge20" class="edge">
<title>Q&#45;&gt;D</title>
<path fill="none" stroke="black" d="M761.59,-143.17C777.52,-157.96 794.23,-179.11 794.23,-202.75 794.23,-1049.74 794.23,-1049.74 794.23,-1049.74 794.23,-1070.24 781.32,-1085.75 764.29,-1097.28"/>
<polygon fill="black" stroke="black" points="762.47,-1094.29 755.76,-1102.49 766.12,-1100.26 762.47,-1094.29"/>
<text xml:space="preserve" text-anchor="middle" x="801.36" y="-578.45" font-family="Helvetica,sans-Serif" font-size="14.00">是</text>
</g>
<!-- R -->
<g id="node18" class="node">
<title>R</title>
<path fill="none" stroke="black" d="M800.48,-36C800.48,-36 665.98,-36 665.98,-36 659.98,-36 653.98,-30 653.98,-24 653.98,-24 653.98,-12 653.98,-12 653.98,-6 659.98,0 665.98,0 665.98,0 800.48,0 800.48,0 806.48,0 812.48,-6 812.48,-12 812.48,-12 812.48,-24 812.48,-24 812.48,-30 806.48,-36 800.48,-36"/>
<text xml:space="preserve" text-anchor="middle" x="733.23" y="-14.82" font-family="Helvetica,sans-Serif" font-size="14.00">输出传统多箱装箱结果</text>
</g>
<!-- Q&#45;&gt;R -->
<g id="edge21" class="edge">
<title>Q&#45;&gt;R</title>
<path fill="none" stroke="black" d="M733.23,-91.77C733.23,-78.02 733.23,-61.43 733.23,-47.57"/>
<polygon fill="black" stroke="black" points="736.73,-47.74 733.23,-37.74 729.73,-47.74 736.73,-47.74"/>
<text xml:space="preserve" text-anchor="middle" x="740.36" y="-60.95" font-family="Helvetica,sans-Serif" font-size="14.00">否</text>
</g>
</g>
</svg>
