<?xml version="1.0" encoding="UTF-8" standalone="no"?>
<!DOCTYPE svg PUBLIC "-//W3C//DTD SVG 1.1//EN"
 "http://www.w3.org/Graphics/SVG/1.1/DTD/svg11.dtd">
<!-- Generated by graphviz version 14.1.0 (0)
 -->
<!-- Title: TotalFlow Pages: 1 -->
<svg width="501pt" height="1520pt"
 viewBox="0.00 0.00 501.00 1520.00" xmlns="http://www.w3.org/2000/svg" xmlns:xlink="http://www.w3.org/1999/xlink">
<g id="graph0" class="graph" transform="scale(1 1) rotate(0) translate(4 1516.25)">
<title>TotalFlow</title>
<polygon fill="white" stroke="none" points="-4,4 -4,-1516.25 497.38,-1516.25 497.38,4 -4,4"/>
<!-- A -->
<g id="node1" class="node">
<title>A</title>
<path fill="none" stroke="black" d="M352.25,-1512.25C352.25,-1512.25 310,-1512.25 310,-1512.25 304,-1512.25 298,-1506.25 298,-1500.25 298,-1500.25 298,-1488.25 298,-1488.25 298,-1482.25 304,-1476.25 310,-1476.25 310,-1476.25 352.25,-1476.25 352.25,-1476.25 358.25,-1476.25 364.25,-1482.25 364.25,-1488.25 364.25,-1488.25 364.25,-1500.25 364.25,-1500.25 364.25,-1506.25 358.25,-1512.25 352.25,-1512.25"/>
<text xml:space="preserve" text-anchor="middle" x="331.12" y="-1488.45" font-family="Helvetica,sans-Serif" font-size="14.00">Request</text>
</g>
<!-- B -->
<g id="node2" class="node">
<title>B</title>
<path fill="none" stroke="black" d="M368.75,-1439.25C368.75,-1439.25 293.5,-1439.25 293.5,-1439.25 287.5,-1439.25 281.5,-1433.25 281.5,-1427.25 281.5,-1427.25 281.5,-1415.25 281.5,-1415.25 281.5,-1409.25 287.5,-1403.25 293.5,-1403.25 293.5,-1403.25 368.75,-1403.25 368.75,-1403.25 374.75,-1403.25 380.75,-1409.25 380.75,-1415.25 380.75,-1415.25 380.75,-1427.25 380.75,-1427.25 380.75,-1433.25 374.75,-1439.25 368.75,-1439.25"/>
<text xml:space="preserve" text-anchor="middle" x="331.12" y="-1418.08" font-family="Helvetica,sans-Serif" font-size="14.00">解析 Request</text>
</g>
<!-- A&#45;&gt;B -->
<g id="edge1" class="edge">
<title>A&#45;&gt;B</title>
<path fill="none" stroke="black" d="M331.12,-1476.06C331.12,-1468.48 331.12,-1459.35 331.12,-1450.79"/>
<polygon fill="black" stroke="black" points="334.63,-1450.79 331.13,-1440.79 327.63,-1450.79 334.63,-1450.79"/>
</g>
<!-- C -->
<g id="node3" class="node">
<title>C</title>
<path fill="none" stroke="black" d="M405.12,-1366.25C405.12,-1366.25 257.12,-1366.25 257.12,-1366.25 251.12,-1366.25 245.12,-1360.25 245.12,-1354.25 245.12,-1354.25 245.12,-1168.75 245.12,-1168.75 245.12,-1162.75 251.12,-1156.75 257.12,-1156.75 257.12,-1156.75 405.12,-1156.75 405.12,-1156.75 411.12,-1156.75 417.12,-1162.75 417.12,-1168.75 417.12,-1168.75 417.12,-1354.25 417.12,-1354.25 417.12,-1360.25 411.12,-1366.25 405.12,-1366.25"/>
<text xml:space="preserve" text-anchor="middle" x="331.12" y="-1348.95" font-family="Helvetica,sans-Serif" font-size="14.00">【图2】输入处理:</text>
<text xml:space="preserve" text-anchor="middle" x="331.12" y="-1312.7" font-family="Helvetica,sans-Serif" font-size="14.00">1. item 关联 orderDetail</text>
<text xml:space="preserve" text-anchor="middle" x="331.12" y="-1276.45" font-family="Helvetica,sans-Serif" font-size="14.00">2. orderDetail 合法性校验</text>
<text xml:space="preserve" text-anchor="middle" x="331.12" y="-1240.2" font-family="Helvetica,sans-Serif" font-size="14.00">3. quantity 对 csQty 取余</text>
<text xml:space="preserve" text-anchor="middle" x="331.12" y="-1203.95" font-family="Helvetica,sans-Serif" font-size="14.00">4. 聚合调度集合</text>
<text xml:space="preserve" text-anchor="middle" x="331.12" y="-1167.7" font-family="Helvetica,sans-Serif" font-size="14.00">5. 离散化尺寸</text>
</g>
<!-- B&#45;&gt;C -->
<g id="edge2" class="edge">
<title>B&#45;&gt;C</title>
<path fill="none" stroke="black" d="M331.12,-1402.77C331.12,-1395.9 331.12,-1387.42 331.12,-1378.05"/>
<polygon fill="black" stroke="black" points="334.63,-1378.2 331.13,-1368.2 327.63,-1378.2 334.63,-1378.2"/>
</g>
<!-- P -->
<g id="node4" class="node">
<title>P</title>
<path fill="none" stroke="black" d="M412.62,-1119.75C412.62,-1119.75 249.62,-1119.75 249.62,-1119.75 243.62,-1119.75 237.62,-1113.75 237.62,-1107.75 237.62,-1107.75 237.62,-1063 237.62,-1063 237.62,-1057 243.62,-1051 249.62,-1051 249.62,-1051 412.62,-1051 412.62,-1051 418.62,-1051 424.62,-1057 424.62,-1063 424.62,-1063 424.62,-1107.75 424.62,-1107.75 424.62,-1113.75 418.62,-1119.75 412.62,-1119.75"/>
<text xml:space="preserve" text-anchor="middle" x="331.12" y="-1102.45" font-family="Helvetica,sans-Serif" font-size="14.00">按 groupId 分组:</text>
<text xml:space="preserve" text-anchor="middle" x="331.12" y="-1082.2" font-family="Helvetica,sans-Serif" font-size="14.00">一个请求可包含多个 group</text>
<text xml:space="preserve" text-anchor="middle" x="331.12" y="-1061.95" font-family="Helvetica,sans-Serif" font-size="14.00">每个 group 独立运行主流程</text>
</g>
<!-- C&#45;&gt;P -->
<g id="edge3" class="edge">
<title>C&#45;&gt;P</title>
<path fill="none" stroke="black" d="M331.12,-1156.45C331.12,-1147.76 331.12,-1139.32 331.12,-1131.47"/>
<polygon fill="black" stroke="black" points="334.63,-1131.58 331.13,-1121.58 327.63,-1131.58 334.63,-1131.58"/>
</g>
<!-- Q -->
<g id="node5" class="node">
<title>Q</title>
<path fill="none" stroke="black" d="M382.25,-1014C382.25,-1014 280,-1014 280,-1014 274,-1014 268,-1008 268,-1002 268,-1002 268,-990 268,-990 268,-984 274,-978 280,-978 280,-978 382.25,-978 382.25,-978 388.25,-978 394.25,-984 394.25,-990 394.25,-990 394.25,-1002 394.25,-1002 394.25,-1008 388.25,-1014 382.25,-1014"/>
<text xml:space="preserve" text-anchor="middle" x="331.12" y="-992.83" font-family="Helvetica,sans-Serif" font-size="14.00">选择下一个 group</text>
</g>
<!-- P&#45;&gt;Q -->
<g id="edge4" class="edge">
<title>P&#45;&gt;Q</title>
<path fill="none" stroke="black" d="M331.12,-1050.59C331.12,-1042.3 331.12,-1033.51 331.12,-1025.49"/>
<polygon fill="black" stroke="black" points="334.63,-1025.61 331.13,-1015.61 327.63,-1025.61 334.63,-1025.61"/>
</g>
<!-- D -->
<g id="node6" class="node">
<title>D</title>
<path fill="none" stroke="black" d="M225.35,-938.68C225.35,-938.68 157.67,-925.32 157.67,-925.32 151.79,-924.16 151.79,-921.84 157.67,-920.68 157.67,-920.68 225.35,-907.32 225.35,-907.32 231.24,-906.16 243.01,-906.16 248.9,-907.32 248.9,-907.32 316.58,-920.68 316.58,-920.68 322.46,-921.84 322.46,-924.16 316.58,-925.32 316.58,-925.32 248.9,-938.68 248.9,-938.68 243.01,-939.84 231.24,-939.84 225.35,-938.68"/>
<text xml:space="preserve" text-anchor="middle" x="237.12" y="-917.2" font-family="Helvetica,sans-Serif" font-size="14.00">carrierService</text>
</g>
<!-- Q&#45;&gt;D -->
<g id="edge5" class="edge">
<title>Q&#45;&gt;D</title>
<path fill="none" stroke="black" d="M308.37,-977.81C295.13,-967.81 278.34,-955.13 264.4,-944.6"/>
<polygon fill="black" stroke="black" points="266.57,-941.85 256.48,-938.62 262.35,-947.44 266.57,-941.85"/>
</g>
<!-- E -->
<g id="node7" class="node">
<title>E</title>
<path fill="none" stroke="black" d="M120.25,-726.75C120.25,-726.75 12,-726.75 12,-726.75 6,-726.75 0,-720.75 0,-714.75 0,-714.75 0,-670 0,-670 0,-664 6,-658 12,-658 12,-658 120.25,-658 120.25,-658 126.25,-658 132.25,-664 132.25,-670 132.25,-670 132.25,-714.75 132.25,-714.75 132.25,-720.75 126.25,-726.75 120.25,-726.75"/>
<text xml:space="preserve" text-anchor="middle" x="66.12" y="-709.45" font-family="Helvetica,sans-Serif" font-size="14.00">【图5】物流处理:</text>
<text xml:space="preserve" text-anchor="middle" x="66.12" y="-689.2" font-family="Helvetica,sans-Serif" font-size="14.00">按 stores 过滤箱型</text>
<text xml:space="preserve" text-anchor="middle" x="66.12" y="-668.95" font-family="Helvetica,sans-Serif" font-size="14.00">取最小体积箱型</text>
</g>
<!-- D&#45;&gt;E -->
<g id="edge6" class="edge">
<title>D&#45;&gt;E</title>
<path fill="none" stroke="black" d="M211.29,-909.9C188.86,-898.28 156.83,-878.85 136.12,-854 107.66,-819.84 88.88,-772.32 78,-737.83"/>
<polygon fill="black" stroke="black" points="81.45,-737.12 75.19,-728.57 74.75,-739.16 81.45,-737.12"/>
<text xml:space="preserve" text-anchor="middle" x="175.05" y="-873.7" font-family="Helvetica,sans-Serif" font-size="14.00">1</text>
</g>
<!-- F -->
<g id="node8" class="node">
<title>F</title>
<path fill="none" stroke="black" d="M317.12,-854C317.12,-854 157.12,-854 157.12,-854 151.12,-854 145.12,-848 145.12,-842 145.12,-842 145.12,-756.75 145.12,-756.75 145.12,-750.75 151.12,-744.75 157.12,-744.75 157.12,-744.75 317.12,-744.75 317.12,-744.75 323.12,-744.75 329.12,-750.75 329.12,-756.75 329.12,-756.75 329.12,-842 329.12,-842 329.12,-848 323.12,-854 317.12,-854"/>
<text xml:space="preserve" text-anchor="middle" x="237.12" y="-836.7" font-family="Helvetica,sans-Serif" font-size="14.00">快递处理:</text>
<text xml:space="preserve" text-anchor="middle" x="237.12" y="-816.45" font-family="Helvetica,sans-Serif" font-size="14.00">LH 轮询分配预处理</text>
<text xml:space="preserve" text-anchor="middle" x="237.12" y="-796.2" font-family="Helvetica,sans-Serif" font-size="14.00">正品优先, 再分配小样/赠品</text>
<text xml:space="preserve" text-anchor="middle" x="237.12" y="-775.95" font-family="Helvetica,sans-Serif" font-size="14.00">按 stores 生成候选箱集合</text>
<text xml:space="preserve" text-anchor="middle" x="237.12" y="-755.7" font-family="Helvetica,sans-Serif" font-size="14.00">根据 sequence 和体积排序</text>
</g>
<!-- D&#45;&gt;F -->
<g id="edge7" class="edge">
<title>D&#45;&gt;F</title>
<path fill="none" stroke="black" d="M237.12,-904.57C237.12,-894.16 237.12,-880.19 237.12,-865.88"/>
<polygon fill="black" stroke="black" points="240.63,-865.91 237.13,-855.91 233.63,-865.91 240.63,-865.91"/>
<text xml:space="preserve" text-anchor="middle" x="240.88" y="-873.7" font-family="Helvetica,sans-Serif" font-size="14.00">0</text>
</g>
<!-- I -->
<g id="node11" class="node">
<title>I</title>
<path fill="none" stroke="black" d="M325.75,-367.75C325.75,-367.75 148.5,-367.75 148.5,-367.75 142.5,-367.75 136.5,-361.75 136.5,-355.75 136.5,-355.75 136.5,-343.75 136.5,-343.75 136.5,-337.75 142.5,-331.75 148.5,-331.75 148.5,-331.75 325.75,-331.75 325.75,-331.75 331.75,-331.75 337.75,-337.75 337.75,-343.75 337.75,-343.75 337.75,-355.75 337.75,-355.75 337.75,-361.75 331.75,-367.75 325.75,-367.75"/>
<text xml:space="preserve" text-anchor="middle" x="237.12" y="-346.57" font-family="Helvetica,sans-Serif" font-size="14.00">得到当前 group 合法装箱结果</text>
</g>
<!-- E&#45;&gt;I -->
<g id="edge10" class="edge">
<title>E&#45;&gt;I</title>
<path fill="none" stroke="black" d="M54.88,-657.86C37.73,-600 12.54,-480.31 68.12,-404.75 82.23,-385.58 103.21,-373.06 125.64,-364.93"/>
<polygon fill="black" stroke="black" points="126.54,-368.32 134.94,-361.86 124.35,-361.67 126.54,-368.32"/>
</g>
<!-- G -->
<g id="node9" class="node">
<title>G</title>
<path fill="none" stroke="black" d="M340.38,-640C340.38,-640 133.88,-640 133.88,-640 127.88,-640 121.88,-634 121.88,-628 121.88,-628 121.88,-522.5 121.88,-522.5 121.88,-516.5 127.88,-510.5 133.88,-510.5 133.88,-510.5 340.38,-510.5 340.38,-510.5 346.38,-510.5 352.38,-516.5 352.38,-522.5 352.38,-522.5 352.38,-628 352.38,-628 352.38,-634 346.38,-640 340.38,-640"/>
<text xml:space="preserve" text-anchor="middle" x="237.12" y="-622.7" font-family="Helvetica,sans-Serif" font-size="14.00">【图4】lclRules 主编排:</text>
<text xml:space="preserve" text-anchor="middle" x="237.12" y="-602.45" font-family="Helvetica,sans-Serif" font-size="14.00">1. 选择当前最高优先级未处理规则</text>
<text xml:space="preserve" text-anchor="middle" x="237.12" y="-582.2" font-family="Helvetica,sans-Serif" font-size="14.00">2. 提取商品子集并计算标志位</text>
<text xml:space="preserve" text-anchor="middle" x="237.12" y="-561.95" font-family="Helvetica,sans-Serif" font-size="14.00">3. 调用单轮箱型求解子流程</text>
<text xml:space="preserve" text-anchor="middle" x="237.12" y="-541.7" font-family="Helvetica,sans-Serif" font-size="14.00">4. 命中/降级/兜底/删除已装商品</text>
<text xml:space="preserve" text-anchor="middle" x="237.12" y="-521.45" font-family="Helvetica,sans-Serif" font-size="14.00">5. 循环到剩余商品为空</text>
</g>
<!-- F&#45;&gt;G -->
<g id="edge8" class="edge">
<title>F&#45;&gt;G</title>
<path fill="none" stroke="black" d="M237.12,-744.32C237.12,-716.54 237.12,-682.22 237.12,-651.86"/>
<polygon fill="black" stroke="black" points="240.63,-651.95 237.13,-641.95 233.63,-651.95 240.63,-651.95"/>
</g>
<!-- H -->
<g id="node10" class="node">
<title>H</title>
<path fill="none" stroke="black" d="M385,-473.5C385,-473.5 89.25,-473.5 89.25,-473.5 83.25,-473.5 77.25,-467.5 77.25,-461.5 77.25,-461.5 77.25,-416.75 77.25,-416.75 77.25,-410.75 83.25,-404.75 89.25,-404.75 89.25,-404.75 385,-404.75 385,-404.75 391,-404.75 397,-410.75 397,-416.75 397,-416.75 397,-461.5 397,-461.5 397,-467.5 391,-473.5 385,-473.5"/>
<text xml:space="preserve" text-anchor="middle" x="237.12" y="-456.2" font-family="Helvetica,sans-Serif" font-size="14.00">单轮箱型求解子流程:</text>
<text xml:space="preserve" text-anchor="middle" x="237.12" y="-435.95" font-family="Helvetica,sans-Serif" font-size="14.00">flag=0 =&gt; 找规则边界箱</text>
<text xml:space="preserve" text-anchor="middle" x="237.12" y="-415.7" font-family="Helvetica,sans-Serif" font-size="14.00">flag=1 =&gt; 对全部剩余商品循环执行传统多箱装箱</text>
</g>
<!-- G&#45;&gt;H -->
<g id="edge9" class="edge">
<title>G&#45;&gt;H</title>
<path fill="none" stroke="black" d="M237.12,-510.33C237.12,-501.81 237.12,-493.22 237.12,-485.11"/>
<polygon fill="black" stroke="black" points="240.63,-485.16 237.13,-475.16 233.63,-485.16 240.63,-485.16"/>
</g>
<!-- H&#45;&gt;I -->
<g id="edge11" class="edge">
<title>H&#45;&gt;I</title>
<path fill="none" stroke="black" d="M237.12,-404.34C237.12,-396.05 237.12,-387.26 237.12,-379.24"/>
<polygon fill="black" stroke="black" points="240.63,-379.36 237.13,-369.36 233.63,-379.36 240.63,-379.36"/>
</g>
<!-- R -->
<g id="node12" class="node">
<title>R</title>
<path fill="none" stroke="black" d="M319.3,-292.69C319.3,-292.69 180.7,-268.56 180.7,-268.56 174.79,-267.53 174.79,-265.47 180.7,-264.44 180.7,-264.44 319.3,-240.31 319.3,-240.31 325.21,-239.28 337.04,-239.28 342.95,-240.31 342.95,-240.31 481.55,-264.44 481.55,-264.44 487.46,-265.47 487.46,-267.53 481.55,-268.56 481.55,-268.56 342.95,-292.69 342.95,-292.69 337.04,-293.72 325.21,-293.72 319.3,-292.69"/>
<text xml:space="preserve" text-anchor="middle" x="331.12" y="-263.32" font-family="Helvetica,sans-Serif" font-size="14.00">是否还有未处理 group?</text>
</g>
<!-- I&#45;&gt;R -->
<g id="edge12" class="edge">
<title>I&#45;&gt;R</title>
<path fill="none" stroke="black" d="M257.06,-331.52C268.38,-321.74 282.87,-309.21 296.03,-297.83"/>
<polygon fill="black" stroke="black" points="298.02,-300.74 303.29,-291.56 293.44,-295.45 298.02,-300.74"/>
</g>
<!-- R&#45;&gt;Q -->
<g id="edge13" class="edge">
<title>R&#45;&gt;Q</title>
<path fill="none" stroke="black" d="M377.57,-287.1C401.26,-300.51 425.12,-320.92 425.12,-348.75 425.12,-924 425.12,-924 425.12,-924 425.12,-945.15 409.79,-960.8 391.5,-971.94"/>
<polygon fill="black" stroke="black" points="389.81,-968.88 382.75,-976.78 393.2,-975 389.81,-968.88"/>
<text xml:space="preserve" text-anchor="middle" x="432.25" y="-572.08" font-family="Helvetica,sans-Serif" font-size="14.00">是</text>
</g>
<!-- J -->
<g id="node13" class="node">
<title>J</title>
<path fill="none" stroke="black" d="M426.88,-182C426.88,-182 235.38,-182 235.38,-182 229.38,-182 223.38,-176 223.38,-170 223.38,-170 223.38,-158 223.38,-158 223.38,-152 229.38,-146 235.38,-146 235.38,-146 426.88,-146 426.88,-146 432.88,-146 438.88,-152 438.88,-158 438.88,-158 438.88,-170 438.88,-170 438.88,-176 432.88,-182 426.88,-182"/>
<text xml:space="preserve" text-anchor="middle" x="331.12" y="-160.82" font-family="Helvetica,sans-Serif" font-size="14.00">合并所有 group 的合法装箱结果</text>
</g>
<!-- R&#45;&gt;J -->
<g id="edge14" class="edge">
<title>R&#45;&gt;J</title>
<path fill="none" stroke="black" d="M331.12,-237.77C331.12,-224.02 331.12,-207.43 331.12,-193.57"/>
<polygon fill="black" stroke="black" points="334.63,-193.74 331.13,-183.74 327.63,-193.74 334.63,-193.74"/>
<text xml:space="preserve" text-anchor="middle" x="338.25" y="-206.95" font-family="Helvetica,sans-Serif" font-size="14.00">否</text>
</g>
<!-- K -->
<g id="node14" class="node">
<title>K</title>
<path fill="none" stroke="black" d="M422.38,-109C422.38,-109 239.88,-109 239.88,-109 233.88,-109 227.88,-103 227.88,-97 227.88,-97 227.88,-85 227.88,-85 227.88,-79 233.88,-73 239.88,-73 239.88,-73 422.38,-73 422.38,-73 428.38,-73 434.38,-79 434.38,-85 434.38,-85 434.38,-97 434.38,-97 434.38,-103 428.38,-109 422.38,-109"/>
<text xml:space="preserve" text-anchor="middle" x="331.12" y="-87.83" font-family="Helvetica,sans-Serif" font-size="14.00">【图6】装箱结果 Response 化</text>
</g>
<!-- J&#45;&gt;K -->
<g id="edge15" class="edge">
<title>J&#45;&gt;K</title>
<path fill="none" stroke="black" d="M331.12,-145.81C331.12,-138.23 331.12,-129.1 331.12,-120.54"/>
<polygon fill="black" stroke="black" points="334.63,-120.54 331.13,-110.54 327.63,-120.54 334.63,-120.54"/>
</g>
<!-- O -->
<g id="node15" class="node">
<title>O</title>
<path fill="none" stroke="black" d="M357.5,-36C357.5,-36 304.75,-36 304.75,-36 298.75,-36 292.75,-30 292.75,-24 292.75,-24 292.75,-12 292.75,-12 292.75,-6 298.75,0 304.75,0 304.75,0 357.5,0 357.5,0 363.5,0 369.5,-6 369.5,-12 369.5,-12 369.5,-24 369.5,-24 369.5,-30 363.5,-36 357.5,-36"/>
<text xml:space="preserve" text-anchor="middle" x="331.12" y="-12.2" font-family="Helvetica,sans-Serif" font-size="14.00">Response</text>
</g>
<!-- K&#45;&gt;O -->
<g id="edge16" class="edge">
<title>K&#45;&gt;O</title>
<path fill="none" stroke="black" d="M331.12,-72.81C331.12,-65.23 331.12,-56.1 331.12,-47.54"/>
<polygon fill="black" stroke="black" points="334.63,-47.54 331.13,-37.54 327.63,-47.54 334.63,-47.54"/>
</g>
</g>
</svg>
