<?xml version="1.0" encoding="UTF-8" standalone="no"?>
<!DOCTYPE svg PUBLIC "-//W3C//DTD SVG 1.1//EN"
 "http://www.w3.org/Graphics/SVG/1.1/DTD/svg11.dtd">
<!-- Generated by graphviz version 14.1.0 (0)
 -->
<!-- Title: NormalPackingFlow Pages: 1 -->
<svg width="878pt" height="1439pt"
 viewBox="0.00 0.00 878.00 1439.00" xmlns="http://www.w3.org/2000/svg" xmlns:xlink="http://www.w3.org/1999/xlink">
<g id="graph0" class="graph" transform="scale(1 1) rotate(0) translate(4 1435.49)">
<title>NormalPackingFlow</title>
<polygon fill="white" stroke="none" points="-4,4 -4,-1435.49 873.73,-1435.49 873.73,4 -4,4"/>
<!-- A -->
<g id="node1" class="node">
<title>A</title>
<path fill="none" stroke="black" d="M778.73,-1431.49C778.73,-1431.49 585.73,-1431.49 585.73,-1431.49 579.73,-1431.49 573.73,-1425.49 573.73,-1419.49 573.73,-1419.49 573.73,-1374.74 573.73,-1374.74 573.73,-1368.74 579.73,-1362.74 585.73,-1362.74 585.73,-1362.74 778.73,-1362.74 778.73,-1362.74 784.73,-1362.74 790.73,-1368.74 790.73,-1374.74 790.73,-1374.74 790.73,-1419.49 790.73,-1419.49 790.73,-1425.49 784.73,-1431.49 778.73,-1431.49"/>
<text xml:space="preserve" text-anchor="middle" x="682.23" y="-1414.19" font-family="Helvetica,sans-Serif" font-size="14.00">输入:</text>
<text xml:space="preserve" text-anchor="middle" x="682.23" y="-1393.94" font-family="Helvetica,sans-Serif" font-size="14.00">全部剩余商品</text>
<text xml:space="preserve" text-anchor="middle" x="682.23" y="-1373.69" font-family="Helvetica,sans-Serif" font-size="14.00">已预处理商品集合 + 候选箱集合</text>
</g>
<!-- B -->
<g id="node2" class="node">
<title>B</title>
<path fill="none" stroke="black" d="M774.23,-1325.74C774.23,-1325.74 590.23,-1325.74 590.23,-1325.74 584.23,-1325.74 578.23,-1319.74 578.23,-1313.74 578.23,-1313.74 578.23,-1274.24 578.23,-1274.24 578.23,-1268.24 584.23,-1262.24 590.23,-1262.24 590.23,-1262.24 774.23,-1262.24 774.23,-1262.24 780.23,-1262.24 786.23,-1268.24 786.23,-1274.24 786.23,-1274.24 786.23,-1313.74 786.23,-1313.74 786.23,-1319.74 780.23,-1325.74 774.23,-1325.74"/>
<text xml:space="preserve" text-anchor="middle" x="682.23" y="-1308.44" font-family="Helvetica,sans-Serif" font-size="14.00">按 stores 过滤候选箱:</text>
<text xml:space="preserve" text-anchor="middle" x="682.23" y="-1288.19" font-family="Helvetica,sans-Serif" font-size="14.00">container.stores == order.stores</text>
<text xml:space="preserve" text-anchor="middle" x="682.23" y="-1273.19" font-family="Helvetica,sans-Serif" font-size="14.00">或任一为 null</text>
</g>
<!-- A&#45;&gt;B -->
<g id="edge1" class="edge">
<title>A&#45;&gt;B</title>
<path fill="none" stroke="black" d="M682.23,-1362.44C682.23,-1354.48 682.23,-1345.88 682.23,-1337.57"/>
<polygon fill="black" stroke="black" points="685.73,-1337.64 682.23,-1327.64 678.73,-1337.64 685.73,-1337.64"/>
</g>
<!-- C -->
<g id="node3" class="node">
<title>C</title>
<path fill="none" stroke="black" d="M798.61,-1225.24C798.61,-1225.24 565.86,-1225.24 565.86,-1225.24 559.86,-1225.24 553.86,-1219.24 553.86,-1213.24 553.86,-1213.24 553.86,-1201.24 553.86,-1201.24 553.86,-1195.24 559.86,-1189.24 565.86,-1189.24 565.86,-1189.24 798.61,-1189.24 798.61,-1189.24 804.61,-1189.24 810.61,-1195.24 810.61,-1201.24 810.61,-1201.24 810.61,-1213.24 810.61,-1213.24 810.61,-1219.24 804.61,-1225.24 798.61,-1225.24"/>
<text xml:space="preserve" text-anchor="middle" x="682.23" y="-1204.07" font-family="Helvetica,sans-Serif" font-size="14.00">按 (sequence, volume) 升序排序候选箱</text>
</g>
<!-- B&#45;&gt;C -->
<g id="edge2" class="edge">
<title>B&#45;&gt;C</title>
<path fill="none" stroke="black" d="M682.23,-1261.91C682.23,-1253.76 682.23,-1245 682.23,-1236.97"/>
<polygon fill="black" stroke="black" points="685.73,-1237.04 682.23,-1227.04 678.73,-1237.04 685.73,-1237.04"/>
</g>
<!-- D -->
<g id="node4" class="node">
<title>D</title>
<path fill="none" stroke="black" d="M751.36,-1152.24C751.36,-1152.24 613.11,-1152.24 613.11,-1152.24 607.11,-1152.24 601.11,-1146.24 601.11,-1140.24 601.11,-1140.24 601.11,-1115.74 601.11,-1115.74 601.11,-1109.74 607.11,-1103.74 613.11,-1103.74 613.11,-1103.74 751.36,-1103.74 751.36,-1103.74 757.36,-1103.74 763.36,-1109.74 763.36,-1115.74 763.36,-1115.74 763.36,-1140.24 763.36,-1140.24 763.36,-1146.24 757.36,-1152.24 751.36,-1152.24"/>
<text xml:space="preserve" text-anchor="middle" x="682.23" y="-1134.94" font-family="Helvetica,sans-Serif" font-size="14.00">选择当前待装商品集合:</text>
<text xml:space="preserve" text-anchor="middle" x="682.23" y="-1114.69" font-family="Helvetica,sans-Serif" font-size="14.00">初始 = 全部剩余商品</text>
</g>
<!-- C&#45;&gt;D -->
<g id="edge3" class="edge">
<title>C&#45;&gt;D</title>
<path fill="none" stroke="black" d="M682.23,-1189.1C682.23,-1181.62 682.23,-1172.56 682.23,-1163.77"/>
<polygon fill="black" stroke="black" points="685.73,-1164.05 682.23,-1154.05 678.73,-1164.05 685.73,-1164.05"/>
</g>
<!-- E -->
<g id="node5" class="node">
<title>E</title>
<path fill="none" stroke="black" d="M609.98,-1066.74C609.98,-1066.74 532.48,-1066.74 532.48,-1066.74 526.48,-1066.74 520.48,-1060.74 520.48,-1054.74 520.48,-1054.74 520.48,-1042.74 520.48,-1042.74 520.48,-1036.74 526.48,-1030.74 532.48,-1030.74 532.48,-1030.74 609.98,-1030.74 609.98,-1030.74 615.98,-1030.74 621.98,-1036.74 621.98,-1042.74 621.98,-1042.74 621.98,-1054.74 621.98,-1054.74 621.98,-1060.74 615.98,-1066.74 609.98,-1066.74"/>
<text xml:space="preserve" text-anchor="middle" x="571.23" y="-1045.57" font-family="Helvetica,sans-Serif" font-size="14.00">取当前候选箱</text>
</g>
<!-- D&#45;&gt;E -->
<g id="edge4" class="edge">
<title>D&#45;&gt;E</title>
<path fill="none" stroke="black" d="M648.32,-1103.39C634.65,-1093.88 618.9,-1082.92 605.22,-1073.39"/>
<polygon fill="black" stroke="black" points="607.57,-1070.77 597.37,-1067.93 603.58,-1076.51 607.57,-1070.77"/>
</g>
<!-- F -->
<g id="node6" class="node">
<title>F</title>
<path fill="none" stroke="black" d="M559.42,-963.48C559.42,-963.48 427.54,-939.52 427.54,-939.52 421.63,-938.44 421.63,-936.3 427.54,-935.23 427.54,-935.23 559.42,-911.27 559.42,-911.27 565.33,-910.19 577.13,-910.19 583.04,-911.27 583.04,-911.27 714.92,-935.23 714.92,-935.23 720.83,-936.3 720.83,-938.44 714.92,-939.52 714.92,-939.52 583.04,-963.48 583.04,-963.48 577.13,-964.55 565.33,-964.55 559.42,-963.48"/>
<text xml:space="preserve" text-anchor="middle" x="571.23" y="-934.2" font-family="Helvetica,sans-Serif" font-size="14.00">箱型库存 quantity &gt; 0?</text>
</g>
<!-- E&#45;&gt;F -->
<g id="edge5" class="edge">
<title>E&#45;&gt;F</title>
<path fill="none" stroke="black" d="M571.23,-1030.65C571.23,-1016.39 571.23,-995.52 571.23,-977.23"/>
<polygon fill="black" stroke="black" points="574.73,-977.48 571.23,-967.48 567.73,-977.48 574.73,-977.48"/>
</g>
<!-- S -->
<g id="node19" class="node">
<title>S</title>
<path fill="none" stroke="black" d="M397.98,-932.25C397.98,-932.25 397.98,-942.5 397.98,-942.5 397.98,-947.62 392.95,-953.75 387.93,-954.74 387.93,-954.74 298.64,-972.49 298.64,-972.49 293.61,-973.49 283.46,-974.49 278.33,-974.49 278.33,-974.49 144.13,-974.49 144.13,-974.49 139,-974.49 128.85,-973.49 123.82,-972.49 123.82,-972.49 34.54,-954.74 34.54,-954.74 29.51,-953.75 24.48,-947.62 24.48,-942.5 24.48,-942.5 24.48,-932.25 24.48,-932.25 24.48,-927.12 29.51,-921 34.54,-920 34.54,-920 123.82,-902.25 123.82,-902.25 128.85,-901.25 139,-900.25 144.13,-900.25 144.13,-900.25 278.33,-900.25 278.33,-900.25 283.46,-900.25 293.61,-901.25 298.64,-902.25 298.64,-902.25 387.93,-920 387.93,-920 392.95,-921 397.98,-927.12 397.98,-932.25"/>
<text xml:space="preserve" text-anchor="middle" x="211.23" y="-944.32" font-family="Helvetica,sans-Serif" font-size="14.00">返回失败:</text>
<text xml:space="preserve" text-anchor="middle" x="211.23" y="-924.07" font-family="Helvetica,sans-Serif" font-size="14.00">当前剩余商品无法命中任何合法箱型</text>
</g>
<!-- E&#45;&gt;S -->
<g id="edge22" class="edge">
<title>E&#45;&gt;S</title>
<path fill="none" stroke="black" d="M520.03,-1032.19C469.56,-1016.85 390.7,-992.9 325.32,-973.03"/>
<polygon fill="black" stroke="black" points="326.56,-969.75 315.98,-970.19 324.53,-976.45 326.56,-969.75"/>
<text xml:space="preserve" text-anchor="middle" x="490.41" y="-999.44" font-family="Helvetica,sans-Serif" font-size="14.00">候选箱耗尽</text>
</g>
<!-- G -->
<g id="node7" class="node">
<title>G</title>
<path fill="none" stroke="black" d="M236.86,-837.75C236.86,-837.75 173.61,-837.75 173.61,-837.75 167.61,-837.75 161.61,-831.75 161.61,-825.75 161.61,-825.75 161.61,-813.75 161.61,-813.75 161.61,-807.75 167.61,-801.75 173.61,-801.75 173.61,-801.75 236.86,-801.75 236.86,-801.75 242.86,-801.75 248.86,-807.75 248.86,-813.75 248.86,-813.75 248.86,-825.75 248.86,-825.75 248.86,-831.75 242.86,-837.75 236.86,-837.75"/>
<text xml:space="preserve" text-anchor="middle" x="205.23" y="-816.58" font-family="Helvetica,sans-Serif" font-size="14.00">跳过该箱型</text>
</g>
<!-- F&#45;&gt;G -->
<g id="edge6" class="edge">
<title>F&#45;&gt;G</title>
<path fill="none" stroke="black" d="M515.64,-918.81C446.36,-896.92 328.7,-859.75 259.86,-838.01"/>
<polygon fill="black" stroke="black" points="261.28,-834.79 250.69,-835.11 259.18,-841.46 261.28,-834.79"/>
<text xml:space="preserve" text-anchor="middle" x="406.33" y="-868.95" font-family="Helvetica,sans-Serif" font-size="14.00">否</text>
</g>
<!-- H -->
<g id="node8" class="node">
<title>H</title>
<path fill="none" stroke="black" d="M630.61,-844C630.61,-844 481.86,-844 481.86,-844 475.86,-844 469.86,-838 469.86,-832 469.86,-832 469.86,-807.5 469.86,-807.5 469.86,-801.5 475.86,-795.5 481.86,-795.5 481.86,-795.5 630.61,-795.5 630.61,-795.5 636.61,-795.5 642.61,-801.5 642.61,-807.5 642.61,-807.5 642.61,-832 642.61,-832 642.61,-838 636.61,-844 630.61,-844"/>
<text xml:space="preserve" text-anchor="middle" x="556.23" y="-826.7" font-family="Helvetica,sans-Serif" font-size="14.00">调用核心装箱算法:</text>
<text xml:space="preserve" text-anchor="middle" x="556.23" y="-806.45" font-family="Helvetica,sans-Serif" font-size="14.00">以当前待装商品集合求解</text>
</g>
<!-- F&#45;&gt;H -->
<g id="edge8" class="edge">
<title>F&#45;&gt;H</title>
<path fill="none" stroke="black" d="M567.71,-909.26C565.63,-893.21 562.97,-872.71 560.74,-855.48"/>
<polygon fill="black" stroke="black" points="564.22,-855.14 559.46,-845.67 557.28,-856.04 564.22,-855.14"/>
<text xml:space="preserve" text-anchor="middle" x="571.31" y="-868.95" font-family="Helvetica,sans-Serif" font-size="14.00">是</text>
</g>
<!-- G&#45;&gt;E -->
<g id="edge7" class="edge">
<title>G&#45;&gt;E</title>
<path fill="none" stroke="black" d="M161.43,-825.33C116.14,-832.65 47.62,-851.58 15.23,-900.25 -3.05,-927.72 -6.52,-949.68 15.23,-974.49 47.42,-1011.2 370.59,-1035.36 508.93,-1044.09"/>
<polygon fill="black" stroke="black" points="508.44,-1047.57 518.64,-1044.7 508.87,-1040.58 508.44,-1047.57"/>
</g>
<!-- I -->
<g id="node9" class="node">
<title>I</title>
<path fill="none" stroke="black" d="M520.36,-756.78C520.36,-756.78 349.61,-731.97 349.61,-731.97 343.67,-731.11 343.67,-729.39 349.61,-728.53 349.61,-728.53 520.36,-703.72 520.36,-703.72 526.29,-702.86 538.17,-702.86 544.11,-703.72 544.11,-703.72 714.86,-728.53 714.86,-728.53 720.79,-729.39 720.79,-731.11 714.86,-731.97 714.86,-731.97 544.11,-756.78 544.11,-756.78 538.17,-757.64 526.29,-757.64 520.36,-756.78"/>
<text xml:space="preserve" text-anchor="middle" x="532.23" y="-727.08" font-family="Helvetica,sans-Serif" font-size="14.00">是否全部装下当前待装商品?</text>
</g>
<!-- H&#45;&gt;I -->
<g id="edge9" class="edge">
<title>H&#45;&gt;I</title>
<path fill="none" stroke="black" d="M549.8,-795.3C547.57,-787.19 545.02,-777.87 542.56,-768.91"/>
<polygon fill="black" stroke="black" points="545.95,-768.03 539.93,-759.32 539.2,-769.88 545.95,-768.03"/>
</g>
<!-- J -->
<g id="node10" class="node">
<title>J</title>
<path fill="none" stroke="black" d="M590.11,-367.75C590.11,-367.75 498.36,-367.75 498.36,-367.75 492.36,-367.75 486.36,-361.75 486.36,-355.75 486.36,-355.75 486.36,-343.75 486.36,-343.75 486.36,-337.75 492.36,-331.75 498.36,-331.75 498.36,-331.75 590.11,-331.75 590.11,-331.75 596.11,-331.75 602.11,-337.75 602.11,-343.75 602.11,-343.75 602.11,-355.75 602.11,-355.75 602.11,-361.75 596.11,-367.75 590.11,-367.75"/>
<text xml:space="preserve" text-anchor="middle" x="544.23" y="-346.57" font-family="Helvetica,sans-Serif" font-size="14.00">尝试下一候选箱</text>
</g>
<!-- I&#45;&gt;J -->
<g id="edge10" class="edge">
<title>I&#45;&gt;J</title>
<path fill="none" stroke="black" d="M522.06,-703.24C515.14,-683.2 507.23,-654.64 507.23,-628.75 507.23,-628.75 507.23,-628.75 507.23,-451.25 507.23,-425.37 518.17,-397.91 528.16,-378.25"/>
<polygon fill="black" stroke="black" points="531.19,-379.99 532.82,-369.52 525.02,-376.7 531.19,-379.99"/>
<text xml:space="preserve" text-anchor="middle" x="514.36" y="-532.33" font-family="Helvetica,sans-Serif" font-size="14.00">否</text>
</g>
<!-- K -->
<g id="node11" class="node">
<title>K</title>
<path fill="none" stroke="black" d="M674.36,-645.75C674.36,-645.75 554.11,-645.75 554.11,-645.75 548.11,-645.75 542.11,-639.75 542.11,-633.75 542.11,-633.75 542.11,-621.75 542.11,-621.75 542.11,-615.75 548.11,-609.75 554.11,-609.75 554.11,-609.75 674.36,-609.75 674.36,-609.75 680.36,-609.75 686.36,-615.75 686.36,-621.75 686.36,-621.75 686.36,-633.75 686.36,-633.75 686.36,-639.75 680.36,-645.75 674.36,-645.75"/>
<text xml:space="preserve" text-anchor="middle" x="614.23" y="-624.58" font-family="Helvetica,sans-Serif" font-size="14.00">得到一个箱子的装法</text>
</g>
<!-- I&#45;&gt;K -->
<g id="edge12" class="edge">
<title>I&#45;&gt;K</title>
<path fill="none" stroke="black" d="M552.29,-704.66C564.66,-689.51 580.5,-670.09 593.06,-654.69"/>
<polygon fill="black" stroke="black" points="595.47,-657.29 599.08,-647.32 590.04,-652.86 595.47,-657.29"/>
<text xml:space="preserve" text-anchor="middle" x="592.49" y="-670.7" font-family="Helvetica,sans-Serif" font-size="14.00">是</text>
</g>
<!-- J&#45;&gt;E -->
<g id="edge11" class="edge">
<title>J&#45;&gt;E</title>
<path fill="none" stroke="black" d="M602.43,-365.6C636.15,-374.3 672.67,-383.93 676.23,-385.75 700.23,-397.97 702.53,-406.77 723.23,-424 737.59,-435.95 755.23,-432.57 755.23,-451.25 755.23,-938.37 755.23,-938.37 755.23,-938.37 755.23,-996.48 686.57,-1024.41 633.14,-1037.34"/>
<polygon fill="black" stroke="black" points="632.45,-1033.91 623.47,-1039.55 634,-1040.74 632.45,-1033.91"/>
</g>
<!-- L -->
<g id="node12" class="node">
<title>L</title>
<path fill="none" stroke="black" d="M714.73,-553.5C714.73,-553.5 551.73,-553.5 551.73,-553.5 545.73,-553.5 539.73,-547.5 539.73,-541.5 539.73,-541.5 539.73,-529.5 539.73,-529.5 539.73,-523.5 545.73,-517.5 551.73,-517.5 551.73,-517.5 714.73,-517.5 714.73,-517.5 720.73,-517.5 726.73,-523.5 726.73,-529.5 726.73,-529.5 726.73,-541.5 726.73,-541.5 726.73,-547.5 720.73,-553.5 714.73,-553.5"/>
<text xml:space="preserve" text-anchor="middle" x="633.23" y="-532.33" font-family="Helvetica,sans-Serif" font-size="14.00">执行装后运行时合法性校验</text>
</g>
<!-- K&#45;&gt;L -->
<g id="edge13" class="edge">
<title>K&#45;&gt;L</title>
<path fill="none" stroke="black" d="M617.89,-609.35C620.55,-596.74 624.2,-579.41 627.27,-564.82"/>
<polygon fill="black" stroke="black" points="630.63,-565.84 629.27,-555.33 623.78,-564.39 630.63,-565.84"/>
</g>
<!-- M -->
<g id="node13" class="node">
<title>M</title>
<path fill="none" stroke="black" d="M621.91,-476.53C621.91,-476.53 564.05,-456.22 564.05,-456.22 558.39,-454.24 558.39,-450.26 564.05,-448.28 564.05,-448.28 621.91,-427.97 621.91,-427.97 627.57,-425.99 638.89,-425.99 644.55,-427.97 644.55,-427.97 702.41,-448.28 702.41,-448.28 708.07,-450.26 708.07,-454.24 702.41,-456.22 702.41,-456.22 644.55,-476.53 644.55,-476.53 638.89,-478.51 627.57,-478.51 621.91,-476.53"/>
<text xml:space="preserve" text-anchor="middle" x="633.23" y="-449.07" font-family="Helvetica,sans-Serif" font-size="14.00">校验通过?</text>
</g>
<!-- L&#45;&gt;M -->
<g id="edge14" class="edge">
<title>L&#45;&gt;M</title>
<path fill="none" stroke="black" d="M633.23,-517.27C633.23,-509.95 633.23,-501.09 633.23,-492.33"/>
<polygon fill="black" stroke="black" points="636.73,-492.52 633.23,-482.52 629.73,-492.52 636.73,-492.52"/>
</g>
<!-- M&#45;&gt;J -->
<g id="edge15" class="edge">
<title>M&#45;&gt;J</title>
<path fill="none" stroke="black" d="M614.79,-430.43C600.92,-414.76 581.82,-393.2 567,-376.46"/>
<polygon fill="black" stroke="black" points="569.94,-374.5 560.69,-369.33 564.7,-379.14 569.94,-374.5"/>
<text xml:space="preserve" text-anchor="middle" x="598.52" y="-392.7" font-family="Helvetica,sans-Serif" font-size="14.00">否</text>
</g>
<!-- N -->
<g id="node14" class="node">
<title>N</title>
<path fill="none" stroke="black" d="M709.98,-367.75C709.98,-367.75 632.48,-367.75 632.48,-367.75 626.48,-367.75 620.48,-361.75 620.48,-355.75 620.48,-355.75 620.48,-343.75 620.48,-343.75 620.48,-337.75 626.48,-331.75 632.48,-331.75 632.48,-331.75 709.98,-331.75 709.98,-331.75 715.98,-331.75 721.98,-337.75 721.98,-343.75 721.98,-343.75 721.98,-355.75 721.98,-355.75 721.98,-361.75 715.98,-367.75 709.98,-367.75"/>
<text xml:space="preserve" text-anchor="middle" x="671.23" y="-346.57" font-family="Helvetica,sans-Serif" font-size="14.00">锁定该箱装法</text>
</g>
<!-- M&#45;&gt;N -->
<g id="edge16" class="edge">
<title>M&#45;&gt;N</title>
<path fill="none" stroke="black" d="M642.43,-426.92C647.94,-412.34 654.98,-393.74 660.71,-378.57"/>
<polygon fill="black" stroke="black" points="663.82,-380.25 664.08,-369.66 657.27,-377.77 663.82,-380.25"/>
<text xml:space="preserve" text-anchor="middle" x="664.98" y="-392.7" font-family="Helvetica,sans-Serif" font-size="14.00">是</text>
</g>
<!-- O -->
<g id="node15" class="node">
<title>O</title>
<path fill="none" stroke="black" d="M728.73,-294.75C728.73,-294.75 613.73,-294.75 613.73,-294.75 607.73,-294.75 601.73,-288.75 601.73,-282.75 601.73,-282.75 601.73,-270.75 601.73,-270.75 601.73,-264.75 607.73,-258.75 613.73,-258.75 613.73,-258.75 728.73,-258.75 728.73,-258.75 734.73,-258.75 740.73,-264.75 740.73,-270.75 740.73,-270.75 740.73,-282.75 740.73,-282.75 740.73,-288.75 734.73,-294.75 728.73,-294.75"/>
<text xml:space="preserve" text-anchor="middle" x="671.23" y="-273.57" font-family="Helvetica,sans-Serif" font-size="14.00">扣减该箱型 quantity</text>
</g>
<!-- N&#45;&gt;O -->
<g id="edge17" class="edge">
<title>N&#45;&gt;O</title>
<path fill="none" stroke="black" d="M671.23,-331.56C671.23,-323.98 671.23,-314.85 671.23,-306.29"/>
<polygon fill="black" stroke="black" points="674.73,-306.29 671.23,-296.29 667.73,-306.29 674.73,-306.29"/>
</g>
<!-- P -->
<g id="node16" class="node">
<title>P</title>
<path fill="none" stroke="black" d="M752.73,-221.75C752.73,-221.75 589.73,-221.75 589.73,-221.75 583.73,-221.75 577.73,-215.75 577.73,-209.75 577.73,-209.75 577.73,-197.75 577.73,-197.75 577.73,-191.75 583.73,-185.75 589.73,-185.75 589.73,-185.75 752.73,-185.75 752.73,-185.75 758.73,-185.75 764.73,-191.75 764.73,-197.75 764.73,-197.75 764.73,-209.75 764.73,-209.75 764.73,-215.75 758.73,-221.75 752.73,-221.75"/>
<text xml:space="preserve" text-anchor="middle" x="671.23" y="-200.57" font-family="Helvetica,sans-Serif" font-size="14.00">从剩余商品中删除已装商品</text>
</g>
<!-- O&#45;&gt;P -->
<g id="edge18" class="edge">
<title>O&#45;&gt;P</title>
<path fill="none" stroke="black" d="M671.23,-258.56C671.23,-250.98 671.23,-241.85 671.23,-233.29"/>
<polygon fill="black" stroke="black" points="674.73,-233.29 671.23,-223.29 667.73,-233.29 674.73,-233.29"/>
</g>
<!-- Q -->
<g id="node17" class="node">
<title>Q</title>
<path fill="none" stroke="black" d="M720.48,-146.33C720.48,-146.33 606.49,-122.92 606.49,-122.92 600.61,-121.71 600.61,-119.29 606.49,-118.08 606.49,-118.08 720.48,-94.67 720.48,-94.67 726.35,-93.46 738.11,-93.46 743.99,-94.67 743.99,-94.67 857.98,-118.08 857.98,-118.08 863.85,-119.29 863.85,-121.71 857.98,-122.92 857.98,-122.92 743.99,-146.33 743.99,-146.33 738.11,-147.54 726.35,-147.54 720.48,-146.33"/>
<text xml:space="preserve" text-anchor="middle" x="732.23" y="-117.33" font-family="Helvetica,sans-Serif" font-size="14.00">是否还有剩余商品?</text>
</g>
<!-- P&#45;&gt;Q -->
<g id="edge19" class="edge">
<title>P&#45;&gt;Q</title>
<path fill="none" stroke="black" d="M684.17,-185.52C690.93,-176.51 699.44,-165.18 707.41,-154.56"/>
<polygon fill="black" stroke="black" points="710.11,-156.8 713.31,-146.7 704.51,-152.59 710.11,-156.8"/>
</g>
<!-- Q&#45;&gt;D -->
<g id="edge20" class="edge">
<title>Q&#45;&gt;D</title>
<path fill="none" stroke="black" d="M760.59,-143.17C776.52,-157.96 793.23,-179.11 793.23,-202.75 793.23,-1049.74 793.23,-1049.74 793.23,-1049.74 793.23,-1070.24 780.31,-1085.75 763.29,-1097.28"/>
<polygon fill="black" stroke="black" points="761.47,-1094.29 754.76,-1102.49 765.12,-1100.26 761.47,-1094.29"/>
<text xml:space="preserve" text-anchor="middle" x="800.36" y="-578.45" font-family="Helvetica,sans-Serif" font-size="14.00">是</text>
</g>
<!-- R -->
<g id="node18" class="node">
<title>R</title>
<path fill="none" stroke="black" d="M799.48,-36C799.48,-36 664.98,-36 664.98,-36 658.98,-36 652.98,-30 652.98,-24 652.98,-24 652.98,-12 652.98,-12 652.98,-6 658.98,0 664.98,0 664.98,0 799.48,0 799.48,0 805.48,0 811.48,-6 811.48,-12 811.48,-12 811.48,-24 811.48,-24 811.48,-30 805.48,-36 799.48,-36"/>
<text xml:space="preserve" text-anchor="middle" x="732.23" y="-14.82" font-family="Helvetica,sans-Serif" font-size="14.00">输出传统多箱装箱结果</text>
</g>
<!-- Q&#45;&gt;R -->
<g id="edge21" class="edge">
<title>Q&#45;&gt;R</title>
<path fill="none" stroke="black" d="M732.23,-91.77C732.23,-78.02 732.23,-61.43 732.23,-47.57"/>
<polygon fill="black" stroke="black" points="735.73,-47.74 732.23,-37.74 728.73,-47.74 735.73,-47.74"/>
<text xml:space="preserve" text-anchor="middle" x="739.36" y="-60.95" font-family="Helvetica,sans-Serif" font-size="14.00">否</text>
</g>
</g>
</svg>
